M48
; DRILL file {KiCad 7.0.8} date Mon Jan  1 15:13:34 2024
; FORMAT={-:-/ absolute / metric / decimal}
; #@! TF.CreationDate,2024-01-01T15:13:34+01:00
; #@! TF.GenerationSoftware,Kicad,Pcbnew,7.0.8
; #@! TF.FileFunction,Plated,1,2,PTH
FMAT,2
METRIC
; #@! TA.AperFunction,Plated,PTH,ViaDrill
T1C0.500
; #@! TA.AperFunction,Plated,PTH,ComponentDrill
T2C1.000
; #@! TA.AperFunction,Plated,PTH,ComponentDrill
T3C1.100
%
G90
G05
T1
X117.7Y-73.775
X118.675Y-65.425
X121.62Y-88.18
X121.62Y-93.83
X124.425Y-79.825
X127.425Y-79.275
X128.575Y-81.575
X128.73Y-69.16
X129.075Y-79.1
X129.51Y-88.07
X129.56Y-83.8
X131.025Y-77.925
X131.29Y-69.16
X133.88Y-69.16
X134.21Y-80.9
X137.79Y-82.58
X138.43Y-85.09
X139.69Y-77.93
X140.375Y-94.706
X140.97Y-85.141
X141.4Y-72.475
X141.96Y-92.49
X143.92Y-82.25
X144.13Y-94.69
X144.139Y-75.688
X145.63Y-86.14
X146.18Y-74.32
X147.13Y-66.4
X148.14Y-74.08
X148.66Y-84.61
X148.9Y-75.24
X152.43Y-72.42
X153.56Y-83.18
X154.217Y-77.449
X154.24Y-76.5
X154.726Y-80.992
X154.73Y-79.799
X155.43Y-86.69
X155.5Y-73.43
X155.61Y-81.66
T2
X128.73Y-66.57
X131.27Y-66.57
X133.81Y-66.57
X136.35Y-66.57
X138.89Y-66.57
T3
X119.3Y-81.1
X119.3Y-83.64
T0
M30
