%TF.GenerationSoftware,KiCad,Pcbnew,7.0.8*%
%TF.CreationDate,2023-12-27T18:35:18+01:00*%
%TF.ProjectId,pierwszy,70696572-7773-47a7-992e-6b696361645f,rev?*%
%TF.SameCoordinates,Original*%
%TF.FileFunction,Legend,Top*%
%TF.FilePolarity,Positive*%
%FSLAX46Y46*%
G04 Gerber Fmt 4.6, Leading zero omitted, Abs format (unit mm)*
G04 Created by KiCad (PCBNEW 7.0.8) date 2023-12-27 18:35:18*
%MOMM*%
%LPD*%
G01*
G04 APERTURE LIST*
%ADD10C,0.250000*%
%ADD11C,0.150000*%
%ADD12C,0.120000*%
%ADD13C,0.100000*%
G04 APERTURE END LIST*
D10*
X154002568Y-91444619D02*
X154002568Y-90444619D01*
X154621615Y-91444619D02*
X154526377Y-91397000D01*
X154526377Y-91397000D02*
X154478758Y-91349380D01*
X154478758Y-91349380D02*
X154431139Y-91254142D01*
X154431139Y-91254142D02*
X154431139Y-90968428D01*
X154431139Y-90968428D02*
X154478758Y-90873190D01*
X154478758Y-90873190D02*
X154526377Y-90825571D01*
X154526377Y-90825571D02*
X154621615Y-90777952D01*
X154621615Y-90777952D02*
X154764472Y-90777952D01*
X154764472Y-90777952D02*
X154859710Y-90825571D01*
X154859710Y-90825571D02*
X154907329Y-90873190D01*
X154907329Y-90873190D02*
X154954948Y-90968428D01*
X154954948Y-90968428D02*
X154954948Y-91254142D01*
X154954948Y-91254142D02*
X154907329Y-91349380D01*
X154907329Y-91349380D02*
X154859710Y-91397000D01*
X154859710Y-91397000D02*
X154764472Y-91444619D01*
X154764472Y-91444619D02*
X154621615Y-91444619D01*
X155240663Y-90444619D02*
X155812091Y-90444619D01*
X155526377Y-91444619D02*
X155526377Y-90444619D01*
X156907330Y-91444619D02*
X156907330Y-90444619D01*
X156907330Y-90444619D02*
X157145425Y-90444619D01*
X157145425Y-90444619D02*
X157288282Y-90492238D01*
X157288282Y-90492238D02*
X157383520Y-90587476D01*
X157383520Y-90587476D02*
X157431139Y-90682714D01*
X157431139Y-90682714D02*
X157478758Y-90873190D01*
X157478758Y-90873190D02*
X157478758Y-91016047D01*
X157478758Y-91016047D02*
X157431139Y-91206523D01*
X157431139Y-91206523D02*
X157383520Y-91301761D01*
X157383520Y-91301761D02*
X157288282Y-91397000D01*
X157288282Y-91397000D02*
X157145425Y-91444619D01*
X157145425Y-91444619D02*
X156907330Y-91444619D01*
X157907330Y-90920809D02*
X158240663Y-90920809D01*
X158383520Y-91444619D02*
X157907330Y-91444619D01*
X157907330Y-91444619D02*
X157907330Y-90444619D01*
X157907330Y-90444619D02*
X158383520Y-90444619D01*
X158669235Y-90444619D02*
X159002568Y-91444619D01*
X159002568Y-91444619D02*
X159335901Y-90444619D01*
X159669235Y-91444619D02*
X159669235Y-90444619D01*
X160716853Y-91349380D02*
X160669234Y-91397000D01*
X160669234Y-91397000D02*
X160526377Y-91444619D01*
X160526377Y-91444619D02*
X160431139Y-91444619D01*
X160431139Y-91444619D02*
X160288282Y-91397000D01*
X160288282Y-91397000D02*
X160193044Y-91301761D01*
X160193044Y-91301761D02*
X160145425Y-91206523D01*
X160145425Y-91206523D02*
X160097806Y-91016047D01*
X160097806Y-91016047D02*
X160097806Y-90873190D01*
X160097806Y-90873190D02*
X160145425Y-90682714D01*
X160145425Y-90682714D02*
X160193044Y-90587476D01*
X160193044Y-90587476D02*
X160288282Y-90492238D01*
X160288282Y-90492238D02*
X160431139Y-90444619D01*
X160431139Y-90444619D02*
X160526377Y-90444619D01*
X160526377Y-90444619D02*
X160669234Y-90492238D01*
X160669234Y-90492238D02*
X160716853Y-90539857D01*
X161145425Y-90920809D02*
X161478758Y-90920809D01*
X161621615Y-91444619D02*
X161145425Y-91444619D01*
X161145425Y-91444619D02*
X161145425Y-90444619D01*
X161145425Y-90444619D02*
X161621615Y-90444619D01*
X154002568Y-93054619D02*
X154002568Y-92387952D01*
X154002568Y-92578428D02*
X154050187Y-92483190D01*
X154050187Y-92483190D02*
X154097806Y-92435571D01*
X154097806Y-92435571D02*
X154193044Y-92387952D01*
X154193044Y-92387952D02*
X154288282Y-92387952D01*
X155002568Y-93007000D02*
X154907330Y-93054619D01*
X154907330Y-93054619D02*
X154716854Y-93054619D01*
X154716854Y-93054619D02*
X154621616Y-93007000D01*
X154621616Y-93007000D02*
X154573997Y-92911761D01*
X154573997Y-92911761D02*
X154573997Y-92530809D01*
X154573997Y-92530809D02*
X154621616Y-92435571D01*
X154621616Y-92435571D02*
X154716854Y-92387952D01*
X154716854Y-92387952D02*
X154907330Y-92387952D01*
X154907330Y-92387952D02*
X155002568Y-92435571D01*
X155002568Y-92435571D02*
X155050187Y-92530809D01*
X155050187Y-92530809D02*
X155050187Y-92626047D01*
X155050187Y-92626047D02*
X154573997Y-92721285D01*
X155383521Y-92387952D02*
X155621616Y-93054619D01*
X155621616Y-93054619D02*
X155859711Y-92387952D01*
X156240664Y-92959380D02*
X156288283Y-93007000D01*
X156288283Y-93007000D02*
X156240664Y-93054619D01*
X156240664Y-93054619D02*
X156193045Y-93007000D01*
X156193045Y-93007000D02*
X156240664Y-92959380D01*
X156240664Y-92959380D02*
X156240664Y-93054619D01*
X158002568Y-93054619D02*
X157431140Y-93054619D01*
X157716854Y-93054619D02*
X157716854Y-92054619D01*
X157716854Y-92054619D02*
X157621616Y-92197476D01*
X157621616Y-92197476D02*
X157526378Y-92292714D01*
X157526378Y-92292714D02*
X157431140Y-92340333D01*
X158383521Y-92149857D02*
X158431140Y-92102238D01*
X158431140Y-92102238D02*
X158526378Y-92054619D01*
X158526378Y-92054619D02*
X158764473Y-92054619D01*
X158764473Y-92054619D02*
X158859711Y-92102238D01*
X158859711Y-92102238D02*
X158907330Y-92149857D01*
X158907330Y-92149857D02*
X158954949Y-92245095D01*
X158954949Y-92245095D02*
X158954949Y-92340333D01*
X158954949Y-92340333D02*
X158907330Y-92483190D01*
X158907330Y-92483190D02*
X158335902Y-93054619D01*
X158335902Y-93054619D02*
X158954949Y-93054619D01*
X160097806Y-92007000D02*
X159240664Y-93292714D01*
X160383521Y-92149857D02*
X160431140Y-92102238D01*
X160431140Y-92102238D02*
X160526378Y-92054619D01*
X160526378Y-92054619D02*
X160764473Y-92054619D01*
X160764473Y-92054619D02*
X160859711Y-92102238D01*
X160859711Y-92102238D02*
X160907330Y-92149857D01*
X160907330Y-92149857D02*
X160954949Y-92245095D01*
X160954949Y-92245095D02*
X160954949Y-92340333D01*
X160954949Y-92340333D02*
X160907330Y-92483190D01*
X160907330Y-92483190D02*
X160335902Y-93054619D01*
X160335902Y-93054619D02*
X160954949Y-93054619D01*
X161288283Y-92054619D02*
X161907330Y-92054619D01*
X161907330Y-92054619D02*
X161573997Y-92435571D01*
X161573997Y-92435571D02*
X161716854Y-92435571D01*
X161716854Y-92435571D02*
X161812092Y-92483190D01*
X161812092Y-92483190D02*
X161859711Y-92530809D01*
X161859711Y-92530809D02*
X161907330Y-92626047D01*
X161907330Y-92626047D02*
X161907330Y-92864142D01*
X161907330Y-92864142D02*
X161859711Y-92959380D01*
X161859711Y-92959380D02*
X161812092Y-93007000D01*
X161812092Y-93007000D02*
X161716854Y-93054619D01*
X161716854Y-93054619D02*
X161431140Y-93054619D01*
X161431140Y-93054619D02*
X161335902Y-93007000D01*
X161335902Y-93007000D02*
X161288283Y-92959380D01*
X154002568Y-94664619D02*
X154002568Y-93664619D01*
X154002568Y-93664619D02*
X154335901Y-94378904D01*
X154335901Y-94378904D02*
X154669234Y-93664619D01*
X154669234Y-93664619D02*
X154669234Y-94664619D01*
X155145425Y-94569380D02*
X155193044Y-94617000D01*
X155193044Y-94617000D02*
X155145425Y-94664619D01*
X155145425Y-94664619D02*
X155097806Y-94617000D01*
X155097806Y-94617000D02*
X155145425Y-94569380D01*
X155145425Y-94569380D02*
X155145425Y-94664619D01*
X156383520Y-94664619D02*
X156383520Y-93664619D01*
X156383520Y-93664619D02*
X156716853Y-94378904D01*
X156716853Y-94378904D02*
X157050186Y-93664619D01*
X157050186Y-93664619D02*
X157050186Y-94664619D01*
X157954948Y-93997952D02*
X157954948Y-94664619D01*
X157526377Y-93997952D02*
X157526377Y-94521761D01*
X157526377Y-94521761D02*
X157573996Y-94617000D01*
X157573996Y-94617000D02*
X157669234Y-94664619D01*
X157669234Y-94664619D02*
X157812091Y-94664619D01*
X157812091Y-94664619D02*
X157907329Y-94617000D01*
X157907329Y-94617000D02*
X157954948Y-94569380D01*
X158383520Y-94617000D02*
X158478758Y-94664619D01*
X158478758Y-94664619D02*
X158669234Y-94664619D01*
X158669234Y-94664619D02*
X158764472Y-94617000D01*
X158764472Y-94617000D02*
X158812091Y-94521761D01*
X158812091Y-94521761D02*
X158812091Y-94474142D01*
X158812091Y-94474142D02*
X158764472Y-94378904D01*
X158764472Y-94378904D02*
X158669234Y-94331285D01*
X158669234Y-94331285D02*
X158526377Y-94331285D01*
X158526377Y-94331285D02*
X158431139Y-94283666D01*
X158431139Y-94283666D02*
X158383520Y-94188428D01*
X158383520Y-94188428D02*
X158383520Y-94140809D01*
X158383520Y-94140809D02*
X158431139Y-94045571D01*
X158431139Y-94045571D02*
X158526377Y-93997952D01*
X158526377Y-93997952D02*
X158669234Y-93997952D01*
X158669234Y-93997952D02*
X158764472Y-94045571D01*
X159240663Y-94664619D02*
X159240663Y-93997952D01*
X159240663Y-93664619D02*
X159193044Y-93712238D01*
X159193044Y-93712238D02*
X159240663Y-93759857D01*
X159240663Y-93759857D02*
X159288282Y-93712238D01*
X159288282Y-93712238D02*
X159240663Y-93664619D01*
X159240663Y-93664619D02*
X159240663Y-93759857D01*
X160145424Y-94664619D02*
X160145424Y-93664619D01*
X160145424Y-94617000D02*
X160050186Y-94664619D01*
X160050186Y-94664619D02*
X159859710Y-94664619D01*
X159859710Y-94664619D02*
X159764472Y-94617000D01*
X159764472Y-94617000D02*
X159716853Y-94569380D01*
X159716853Y-94569380D02*
X159669234Y-94474142D01*
X159669234Y-94474142D02*
X159669234Y-94188428D01*
X159669234Y-94188428D02*
X159716853Y-94093190D01*
X159716853Y-94093190D02*
X159764472Y-94045571D01*
X159764472Y-94045571D02*
X159859710Y-93997952D01*
X159859710Y-93997952D02*
X160050186Y-93997952D01*
X160050186Y-93997952D02*
X160145424Y-94045571D01*
X160764472Y-94664619D02*
X160669234Y-94617000D01*
X160669234Y-94617000D02*
X160621615Y-94521761D01*
X160621615Y-94521761D02*
X160621615Y-93664619D01*
X161573996Y-94664619D02*
X161573996Y-94140809D01*
X161573996Y-94140809D02*
X161526377Y-94045571D01*
X161526377Y-94045571D02*
X161431139Y-93997952D01*
X161431139Y-93997952D02*
X161240663Y-93997952D01*
X161240663Y-93997952D02*
X161145425Y-94045571D01*
X161573996Y-94617000D02*
X161478758Y-94664619D01*
X161478758Y-94664619D02*
X161240663Y-94664619D01*
X161240663Y-94664619D02*
X161145425Y-94617000D01*
X161145425Y-94617000D02*
X161097806Y-94521761D01*
X161097806Y-94521761D02*
X161097806Y-94426523D01*
X161097806Y-94426523D02*
X161145425Y-94331285D01*
X161145425Y-94331285D02*
X161240663Y-94283666D01*
X161240663Y-94283666D02*
X161478758Y-94283666D01*
X161478758Y-94283666D02*
X161573996Y-94236047D01*
X162050187Y-94664619D02*
X162050187Y-93664619D01*
X162145425Y-94283666D02*
X162431139Y-94664619D01*
X162431139Y-93997952D02*
X162050187Y-94378904D01*
D11*
X141959580Y-80842857D02*
X142007200Y-80890476D01*
X142007200Y-80890476D02*
X142054819Y-81033333D01*
X142054819Y-81033333D02*
X142054819Y-81128571D01*
X142054819Y-81128571D02*
X142007200Y-81271428D01*
X142007200Y-81271428D02*
X141911961Y-81366666D01*
X141911961Y-81366666D02*
X141816723Y-81414285D01*
X141816723Y-81414285D02*
X141626247Y-81461904D01*
X141626247Y-81461904D02*
X141483390Y-81461904D01*
X141483390Y-81461904D02*
X141292914Y-81414285D01*
X141292914Y-81414285D02*
X141197676Y-81366666D01*
X141197676Y-81366666D02*
X141102438Y-81271428D01*
X141102438Y-81271428D02*
X141054819Y-81128571D01*
X141054819Y-81128571D02*
X141054819Y-81033333D01*
X141054819Y-81033333D02*
X141102438Y-80890476D01*
X141102438Y-80890476D02*
X141150057Y-80842857D01*
X142054819Y-79890476D02*
X142054819Y-80461904D01*
X142054819Y-80176190D02*
X141054819Y-80176190D01*
X141054819Y-80176190D02*
X141197676Y-80271428D01*
X141197676Y-80271428D02*
X141292914Y-80366666D01*
X141292914Y-80366666D02*
X141340533Y-80461904D01*
X142054819Y-79414285D02*
X142054819Y-79223809D01*
X142054819Y-79223809D02*
X142007200Y-79128571D01*
X142007200Y-79128571D02*
X141959580Y-79080952D01*
X141959580Y-79080952D02*
X141816723Y-78985714D01*
X141816723Y-78985714D02*
X141626247Y-78938095D01*
X141626247Y-78938095D02*
X141245295Y-78938095D01*
X141245295Y-78938095D02*
X141150057Y-78985714D01*
X141150057Y-78985714D02*
X141102438Y-79033333D01*
X141102438Y-79033333D02*
X141054819Y-79128571D01*
X141054819Y-79128571D02*
X141054819Y-79319047D01*
X141054819Y-79319047D02*
X141102438Y-79414285D01*
X141102438Y-79414285D02*
X141150057Y-79461904D01*
X141150057Y-79461904D02*
X141245295Y-79509523D01*
X141245295Y-79509523D02*
X141483390Y-79509523D01*
X141483390Y-79509523D02*
X141578628Y-79461904D01*
X141578628Y-79461904D02*
X141626247Y-79414285D01*
X141626247Y-79414285D02*
X141673866Y-79319047D01*
X141673866Y-79319047D02*
X141673866Y-79128571D01*
X141673866Y-79128571D02*
X141626247Y-79033333D01*
X141626247Y-79033333D02*
X141578628Y-78985714D01*
X141578628Y-78985714D02*
X141483390Y-78938095D01*
X134823295Y-77940819D02*
X134823295Y-78750342D01*
X134823295Y-78750342D02*
X134870914Y-78845580D01*
X134870914Y-78845580D02*
X134918533Y-78893200D01*
X134918533Y-78893200D02*
X135013771Y-78940819D01*
X135013771Y-78940819D02*
X135204247Y-78940819D01*
X135204247Y-78940819D02*
X135299485Y-78893200D01*
X135299485Y-78893200D02*
X135347104Y-78845580D01*
X135347104Y-78845580D02*
X135394723Y-78750342D01*
X135394723Y-78750342D02*
X135394723Y-77940819D01*
X135775676Y-77940819D02*
X136394723Y-77940819D01*
X136394723Y-77940819D02*
X136061390Y-78321771D01*
X136061390Y-78321771D02*
X136204247Y-78321771D01*
X136204247Y-78321771D02*
X136299485Y-78369390D01*
X136299485Y-78369390D02*
X136347104Y-78417009D01*
X136347104Y-78417009D02*
X136394723Y-78512247D01*
X136394723Y-78512247D02*
X136394723Y-78750342D01*
X136394723Y-78750342D02*
X136347104Y-78845580D01*
X136347104Y-78845580D02*
X136299485Y-78893200D01*
X136299485Y-78893200D02*
X136204247Y-78940819D01*
X136204247Y-78940819D02*
X135918533Y-78940819D01*
X135918533Y-78940819D02*
X135823295Y-78893200D01*
X135823295Y-78893200D02*
X135775676Y-78845580D01*
X142733733Y-71369019D02*
X142257543Y-71369019D01*
X142257543Y-71369019D02*
X142257543Y-70369019D01*
X143543257Y-70369019D02*
X143067067Y-70369019D01*
X143067067Y-70369019D02*
X143019448Y-70845209D01*
X143019448Y-70845209D02*
X143067067Y-70797590D01*
X143067067Y-70797590D02*
X143162305Y-70749971D01*
X143162305Y-70749971D02*
X143400400Y-70749971D01*
X143400400Y-70749971D02*
X143495638Y-70797590D01*
X143495638Y-70797590D02*
X143543257Y-70845209D01*
X143543257Y-70845209D02*
X143590876Y-70940447D01*
X143590876Y-70940447D02*
X143590876Y-71178542D01*
X143590876Y-71178542D02*
X143543257Y-71273780D01*
X143543257Y-71273780D02*
X143495638Y-71321400D01*
X143495638Y-71321400D02*
X143400400Y-71369019D01*
X143400400Y-71369019D02*
X143162305Y-71369019D01*
X143162305Y-71369019D02*
X143067067Y-71321400D01*
X143067067Y-71321400D02*
X143019448Y-71273780D01*
X137350833Y-72684819D02*
X137017500Y-72208628D01*
X136779405Y-72684819D02*
X136779405Y-71684819D01*
X136779405Y-71684819D02*
X137160357Y-71684819D01*
X137160357Y-71684819D02*
X137255595Y-71732438D01*
X137255595Y-71732438D02*
X137303214Y-71780057D01*
X137303214Y-71780057D02*
X137350833Y-71875295D01*
X137350833Y-71875295D02*
X137350833Y-72018152D01*
X137350833Y-72018152D02*
X137303214Y-72113390D01*
X137303214Y-72113390D02*
X137255595Y-72161009D01*
X137255595Y-72161009D02*
X137160357Y-72208628D01*
X137160357Y-72208628D02*
X136779405Y-72208628D01*
X137684167Y-71684819D02*
X138350833Y-71684819D01*
X138350833Y-71684819D02*
X137922262Y-72684819D01*
X139253933Y-83258819D02*
X138920600Y-82782628D01*
X138682505Y-83258819D02*
X138682505Y-82258819D01*
X138682505Y-82258819D02*
X139063457Y-82258819D01*
X139063457Y-82258819D02*
X139158695Y-82306438D01*
X139158695Y-82306438D02*
X139206314Y-82354057D01*
X139206314Y-82354057D02*
X139253933Y-82449295D01*
X139253933Y-82449295D02*
X139253933Y-82592152D01*
X139253933Y-82592152D02*
X139206314Y-82687390D01*
X139206314Y-82687390D02*
X139158695Y-82735009D01*
X139158695Y-82735009D02*
X139063457Y-82782628D01*
X139063457Y-82782628D02*
X138682505Y-82782628D01*
X139634886Y-82354057D02*
X139682505Y-82306438D01*
X139682505Y-82306438D02*
X139777743Y-82258819D01*
X139777743Y-82258819D02*
X140015838Y-82258819D01*
X140015838Y-82258819D02*
X140111076Y-82306438D01*
X140111076Y-82306438D02*
X140158695Y-82354057D01*
X140158695Y-82354057D02*
X140206314Y-82449295D01*
X140206314Y-82449295D02*
X140206314Y-82544533D01*
X140206314Y-82544533D02*
X140158695Y-82687390D01*
X140158695Y-82687390D02*
X139587267Y-83258819D01*
X139587267Y-83258819D02*
X140206314Y-83258819D01*
X125854819Y-66903333D02*
X126569104Y-66903333D01*
X126569104Y-66903333D02*
X126711961Y-66950952D01*
X126711961Y-66950952D02*
X126807200Y-67046190D01*
X126807200Y-67046190D02*
X126854819Y-67189047D01*
X126854819Y-67189047D02*
X126854819Y-67284285D01*
X125950057Y-66474761D02*
X125902438Y-66427142D01*
X125902438Y-66427142D02*
X125854819Y-66331904D01*
X125854819Y-66331904D02*
X125854819Y-66093809D01*
X125854819Y-66093809D02*
X125902438Y-65998571D01*
X125902438Y-65998571D02*
X125950057Y-65950952D01*
X125950057Y-65950952D02*
X126045295Y-65903333D01*
X126045295Y-65903333D02*
X126140533Y-65903333D01*
X126140533Y-65903333D02*
X126283390Y-65950952D01*
X126283390Y-65950952D02*
X126854819Y-66522380D01*
X126854819Y-66522380D02*
X126854819Y-65903333D01*
X147603380Y-91438266D02*
X147651000Y-91485885D01*
X147651000Y-91485885D02*
X147698619Y-91628742D01*
X147698619Y-91628742D02*
X147698619Y-91723980D01*
X147698619Y-91723980D02*
X147651000Y-91866837D01*
X147651000Y-91866837D02*
X147555761Y-91962075D01*
X147555761Y-91962075D02*
X147460523Y-92009694D01*
X147460523Y-92009694D02*
X147270047Y-92057313D01*
X147270047Y-92057313D02*
X147127190Y-92057313D01*
X147127190Y-92057313D02*
X146936714Y-92009694D01*
X146936714Y-92009694D02*
X146841476Y-91962075D01*
X146841476Y-91962075D02*
X146746238Y-91866837D01*
X146746238Y-91866837D02*
X146698619Y-91723980D01*
X146698619Y-91723980D02*
X146698619Y-91628742D01*
X146698619Y-91628742D02*
X146746238Y-91485885D01*
X146746238Y-91485885D02*
X146793857Y-91438266D01*
X147031952Y-90581123D02*
X147698619Y-90581123D01*
X146651000Y-90819218D02*
X147365285Y-91057313D01*
X147365285Y-91057313D02*
X147365285Y-90438266D01*
X141912242Y-69648180D02*
X141864623Y-69695800D01*
X141864623Y-69695800D02*
X141721766Y-69743419D01*
X141721766Y-69743419D02*
X141626528Y-69743419D01*
X141626528Y-69743419D02*
X141483671Y-69695800D01*
X141483671Y-69695800D02*
X141388433Y-69600561D01*
X141388433Y-69600561D02*
X141340814Y-69505323D01*
X141340814Y-69505323D02*
X141293195Y-69314847D01*
X141293195Y-69314847D02*
X141293195Y-69171990D01*
X141293195Y-69171990D02*
X141340814Y-68981514D01*
X141340814Y-68981514D02*
X141388433Y-68886276D01*
X141388433Y-68886276D02*
X141483671Y-68791038D01*
X141483671Y-68791038D02*
X141626528Y-68743419D01*
X141626528Y-68743419D02*
X141721766Y-68743419D01*
X141721766Y-68743419D02*
X141864623Y-68791038D01*
X141864623Y-68791038D02*
X141912242Y-68838657D01*
X142864623Y-69743419D02*
X142293195Y-69743419D01*
X142578909Y-69743419D02*
X142578909Y-68743419D01*
X142578909Y-68743419D02*
X142483671Y-68886276D01*
X142483671Y-68886276D02*
X142388433Y-68981514D01*
X142388433Y-68981514D02*
X142293195Y-69029133D01*
X143721766Y-69076752D02*
X143721766Y-69743419D01*
X143483671Y-68695800D02*
X143245576Y-69410085D01*
X143245576Y-69410085D02*
X143864623Y-69410085D01*
X129876380Y-94101057D02*
X129924000Y-94148676D01*
X129924000Y-94148676D02*
X129971619Y-94291533D01*
X129971619Y-94291533D02*
X129971619Y-94386771D01*
X129971619Y-94386771D02*
X129924000Y-94529628D01*
X129924000Y-94529628D02*
X129828761Y-94624866D01*
X129828761Y-94624866D02*
X129733523Y-94672485D01*
X129733523Y-94672485D02*
X129543047Y-94720104D01*
X129543047Y-94720104D02*
X129400190Y-94720104D01*
X129400190Y-94720104D02*
X129209714Y-94672485D01*
X129209714Y-94672485D02*
X129114476Y-94624866D01*
X129114476Y-94624866D02*
X129019238Y-94529628D01*
X129019238Y-94529628D02*
X128971619Y-94386771D01*
X128971619Y-94386771D02*
X128971619Y-94291533D01*
X128971619Y-94291533D02*
X129019238Y-94148676D01*
X129019238Y-94148676D02*
X129066857Y-94101057D01*
X129971619Y-93148676D02*
X129971619Y-93720104D01*
X129971619Y-93434390D02*
X128971619Y-93434390D01*
X128971619Y-93434390D02*
X129114476Y-93529628D01*
X129114476Y-93529628D02*
X129209714Y-93624866D01*
X129209714Y-93624866D02*
X129257333Y-93720104D01*
X128971619Y-92529628D02*
X128971619Y-92434390D01*
X128971619Y-92434390D02*
X129019238Y-92339152D01*
X129019238Y-92339152D02*
X129066857Y-92291533D01*
X129066857Y-92291533D02*
X129162095Y-92243914D01*
X129162095Y-92243914D02*
X129352571Y-92196295D01*
X129352571Y-92196295D02*
X129590666Y-92196295D01*
X129590666Y-92196295D02*
X129781142Y-92243914D01*
X129781142Y-92243914D02*
X129876380Y-92291533D01*
X129876380Y-92291533D02*
X129924000Y-92339152D01*
X129924000Y-92339152D02*
X129971619Y-92434390D01*
X129971619Y-92434390D02*
X129971619Y-92529628D01*
X129971619Y-92529628D02*
X129924000Y-92624866D01*
X129924000Y-92624866D02*
X129876380Y-92672485D01*
X129876380Y-92672485D02*
X129781142Y-92720104D01*
X129781142Y-92720104D02*
X129590666Y-92767723D01*
X129590666Y-92767723D02*
X129352571Y-92767723D01*
X129352571Y-92767723D02*
X129162095Y-92720104D01*
X129162095Y-92720104D02*
X129066857Y-92672485D01*
X129066857Y-92672485D02*
X129019238Y-92624866D01*
X129019238Y-92624866D02*
X128971619Y-92529628D01*
X150083333Y-93629819D02*
X149607143Y-93629819D01*
X149607143Y-93629819D02*
X149607143Y-92629819D01*
X150845238Y-92963152D02*
X150845238Y-93629819D01*
X150607143Y-92582200D02*
X150369048Y-93296485D01*
X150369048Y-93296485D02*
X150988095Y-93296485D01*
X133109580Y-86702857D02*
X133157200Y-86750476D01*
X133157200Y-86750476D02*
X133204819Y-86893333D01*
X133204819Y-86893333D02*
X133204819Y-86988571D01*
X133204819Y-86988571D02*
X133157200Y-87131428D01*
X133157200Y-87131428D02*
X133061961Y-87226666D01*
X133061961Y-87226666D02*
X132966723Y-87274285D01*
X132966723Y-87274285D02*
X132776247Y-87321904D01*
X132776247Y-87321904D02*
X132633390Y-87321904D01*
X132633390Y-87321904D02*
X132442914Y-87274285D01*
X132442914Y-87274285D02*
X132347676Y-87226666D01*
X132347676Y-87226666D02*
X132252438Y-87131428D01*
X132252438Y-87131428D02*
X132204819Y-86988571D01*
X132204819Y-86988571D02*
X132204819Y-86893333D01*
X132204819Y-86893333D02*
X132252438Y-86750476D01*
X132252438Y-86750476D02*
X132300057Y-86702857D01*
X132300057Y-86321904D02*
X132252438Y-86274285D01*
X132252438Y-86274285D02*
X132204819Y-86179047D01*
X132204819Y-86179047D02*
X132204819Y-85940952D01*
X132204819Y-85940952D02*
X132252438Y-85845714D01*
X132252438Y-85845714D02*
X132300057Y-85798095D01*
X132300057Y-85798095D02*
X132395295Y-85750476D01*
X132395295Y-85750476D02*
X132490533Y-85750476D01*
X132490533Y-85750476D02*
X132633390Y-85798095D01*
X132633390Y-85798095D02*
X133204819Y-86369523D01*
X133204819Y-86369523D02*
X133204819Y-85750476D01*
X132538152Y-84893333D02*
X133204819Y-84893333D01*
X132157200Y-85131428D02*
X132871485Y-85369523D01*
X132871485Y-85369523D02*
X132871485Y-84750476D01*
X143938095Y-83754819D02*
X143938095Y-84564342D01*
X143938095Y-84564342D02*
X143985714Y-84659580D01*
X143985714Y-84659580D02*
X144033333Y-84707200D01*
X144033333Y-84707200D02*
X144128571Y-84754819D01*
X144128571Y-84754819D02*
X144319047Y-84754819D01*
X144319047Y-84754819D02*
X144414285Y-84707200D01*
X144414285Y-84707200D02*
X144461904Y-84659580D01*
X144461904Y-84659580D02*
X144509523Y-84564342D01*
X144509523Y-84564342D02*
X144509523Y-83754819D01*
X145509523Y-84754819D02*
X144938095Y-84754819D01*
X145223809Y-84754819D02*
X145223809Y-83754819D01*
X145223809Y-83754819D02*
X145128571Y-83897676D01*
X145128571Y-83897676D02*
X145033333Y-83992914D01*
X145033333Y-83992914D02*
X144938095Y-84040533D01*
X155383333Y-68559580D02*
X155335714Y-68607200D01*
X155335714Y-68607200D02*
X155192857Y-68654819D01*
X155192857Y-68654819D02*
X155097619Y-68654819D01*
X155097619Y-68654819D02*
X154954762Y-68607200D01*
X154954762Y-68607200D02*
X154859524Y-68511961D01*
X154859524Y-68511961D02*
X154811905Y-68416723D01*
X154811905Y-68416723D02*
X154764286Y-68226247D01*
X154764286Y-68226247D02*
X154764286Y-68083390D01*
X154764286Y-68083390D02*
X154811905Y-67892914D01*
X154811905Y-67892914D02*
X154859524Y-67797676D01*
X154859524Y-67797676D02*
X154954762Y-67702438D01*
X154954762Y-67702438D02*
X155097619Y-67654819D01*
X155097619Y-67654819D02*
X155192857Y-67654819D01*
X155192857Y-67654819D02*
X155335714Y-67702438D01*
X155335714Y-67702438D02*
X155383333Y-67750057D01*
X156335714Y-68654819D02*
X155764286Y-68654819D01*
X156050000Y-68654819D02*
X156050000Y-67654819D01*
X156050000Y-67654819D02*
X155954762Y-67797676D01*
X155954762Y-67797676D02*
X155859524Y-67892914D01*
X155859524Y-67892914D02*
X155764286Y-67940533D01*
X126706633Y-90148519D02*
X126373300Y-89672328D01*
X126135205Y-90148519D02*
X126135205Y-89148519D01*
X126135205Y-89148519D02*
X126516157Y-89148519D01*
X126516157Y-89148519D02*
X126611395Y-89196138D01*
X126611395Y-89196138D02*
X126659014Y-89243757D01*
X126659014Y-89243757D02*
X126706633Y-89338995D01*
X126706633Y-89338995D02*
X126706633Y-89481852D01*
X126706633Y-89481852D02*
X126659014Y-89577090D01*
X126659014Y-89577090D02*
X126611395Y-89624709D01*
X126611395Y-89624709D02*
X126516157Y-89672328D01*
X126516157Y-89672328D02*
X126135205Y-89672328D01*
X127659014Y-90148519D02*
X127087586Y-90148519D01*
X127373300Y-90148519D02*
X127373300Y-89148519D01*
X127373300Y-89148519D02*
X127278062Y-89291376D01*
X127278062Y-89291376D02*
X127182824Y-89386614D01*
X127182824Y-89386614D02*
X127087586Y-89434233D01*
X140057942Y-71864380D02*
X140010323Y-71912000D01*
X140010323Y-71912000D02*
X139867466Y-71959619D01*
X139867466Y-71959619D02*
X139772228Y-71959619D01*
X139772228Y-71959619D02*
X139629371Y-71912000D01*
X139629371Y-71912000D02*
X139534133Y-71816761D01*
X139534133Y-71816761D02*
X139486514Y-71721523D01*
X139486514Y-71721523D02*
X139438895Y-71531047D01*
X139438895Y-71531047D02*
X139438895Y-71388190D01*
X139438895Y-71388190D02*
X139486514Y-71197714D01*
X139486514Y-71197714D02*
X139534133Y-71102476D01*
X139534133Y-71102476D02*
X139629371Y-71007238D01*
X139629371Y-71007238D02*
X139772228Y-70959619D01*
X139772228Y-70959619D02*
X139867466Y-70959619D01*
X139867466Y-70959619D02*
X140010323Y-71007238D01*
X140010323Y-71007238D02*
X140057942Y-71054857D01*
X140438895Y-71054857D02*
X140486514Y-71007238D01*
X140486514Y-71007238D02*
X140581752Y-70959619D01*
X140581752Y-70959619D02*
X140819847Y-70959619D01*
X140819847Y-70959619D02*
X140915085Y-71007238D01*
X140915085Y-71007238D02*
X140962704Y-71054857D01*
X140962704Y-71054857D02*
X141010323Y-71150095D01*
X141010323Y-71150095D02*
X141010323Y-71245333D01*
X141010323Y-71245333D02*
X140962704Y-71388190D01*
X140962704Y-71388190D02*
X140391276Y-71959619D01*
X140391276Y-71959619D02*
X141010323Y-71959619D01*
X141962704Y-71959619D02*
X141391276Y-71959619D01*
X141676990Y-71959619D02*
X141676990Y-70959619D01*
X141676990Y-70959619D02*
X141581752Y-71102476D01*
X141581752Y-71102476D02*
X141486514Y-71197714D01*
X141486514Y-71197714D02*
X141391276Y-71245333D01*
X152620742Y-74330780D02*
X152573123Y-74378400D01*
X152573123Y-74378400D02*
X152430266Y-74426019D01*
X152430266Y-74426019D02*
X152335028Y-74426019D01*
X152335028Y-74426019D02*
X152192171Y-74378400D01*
X152192171Y-74378400D02*
X152096933Y-74283161D01*
X152096933Y-74283161D02*
X152049314Y-74187923D01*
X152049314Y-74187923D02*
X152001695Y-73997447D01*
X152001695Y-73997447D02*
X152001695Y-73854590D01*
X152001695Y-73854590D02*
X152049314Y-73664114D01*
X152049314Y-73664114D02*
X152096933Y-73568876D01*
X152096933Y-73568876D02*
X152192171Y-73473638D01*
X152192171Y-73473638D02*
X152335028Y-73426019D01*
X152335028Y-73426019D02*
X152430266Y-73426019D01*
X152430266Y-73426019D02*
X152573123Y-73473638D01*
X152573123Y-73473638D02*
X152620742Y-73521257D01*
X153573123Y-74426019D02*
X153001695Y-74426019D01*
X153287409Y-74426019D02*
X153287409Y-73426019D01*
X153287409Y-73426019D02*
X153192171Y-73568876D01*
X153192171Y-73568876D02*
X153096933Y-73664114D01*
X153096933Y-73664114D02*
X153001695Y-73711733D01*
X154144552Y-73854590D02*
X154049314Y-73806971D01*
X154049314Y-73806971D02*
X154001695Y-73759352D01*
X154001695Y-73759352D02*
X153954076Y-73664114D01*
X153954076Y-73664114D02*
X153954076Y-73616495D01*
X153954076Y-73616495D02*
X154001695Y-73521257D01*
X154001695Y-73521257D02*
X154049314Y-73473638D01*
X154049314Y-73473638D02*
X154144552Y-73426019D01*
X154144552Y-73426019D02*
X154335028Y-73426019D01*
X154335028Y-73426019D02*
X154430266Y-73473638D01*
X154430266Y-73473638D02*
X154477885Y-73521257D01*
X154477885Y-73521257D02*
X154525504Y-73616495D01*
X154525504Y-73616495D02*
X154525504Y-73664114D01*
X154525504Y-73664114D02*
X154477885Y-73759352D01*
X154477885Y-73759352D02*
X154430266Y-73806971D01*
X154430266Y-73806971D02*
X154335028Y-73854590D01*
X154335028Y-73854590D02*
X154144552Y-73854590D01*
X154144552Y-73854590D02*
X154049314Y-73902209D01*
X154049314Y-73902209D02*
X154001695Y-73949828D01*
X154001695Y-73949828D02*
X153954076Y-74045066D01*
X153954076Y-74045066D02*
X153954076Y-74235542D01*
X153954076Y-74235542D02*
X154001695Y-74330780D01*
X154001695Y-74330780D02*
X154049314Y-74378400D01*
X154049314Y-74378400D02*
X154144552Y-74426019D01*
X154144552Y-74426019D02*
X154335028Y-74426019D01*
X154335028Y-74426019D02*
X154430266Y-74378400D01*
X154430266Y-74378400D02*
X154477885Y-74330780D01*
X154477885Y-74330780D02*
X154525504Y-74235542D01*
X154525504Y-74235542D02*
X154525504Y-74045066D01*
X154525504Y-74045066D02*
X154477885Y-73949828D01*
X154477885Y-73949828D02*
X154430266Y-73902209D01*
X154430266Y-73902209D02*
X154335028Y-73854590D01*
X143933333Y-86559580D02*
X143885714Y-86607200D01*
X143885714Y-86607200D02*
X143742857Y-86654819D01*
X143742857Y-86654819D02*
X143647619Y-86654819D01*
X143647619Y-86654819D02*
X143504762Y-86607200D01*
X143504762Y-86607200D02*
X143409524Y-86511961D01*
X143409524Y-86511961D02*
X143361905Y-86416723D01*
X143361905Y-86416723D02*
X143314286Y-86226247D01*
X143314286Y-86226247D02*
X143314286Y-86083390D01*
X143314286Y-86083390D02*
X143361905Y-85892914D01*
X143361905Y-85892914D02*
X143409524Y-85797676D01*
X143409524Y-85797676D02*
X143504762Y-85702438D01*
X143504762Y-85702438D02*
X143647619Y-85654819D01*
X143647619Y-85654819D02*
X143742857Y-85654819D01*
X143742857Y-85654819D02*
X143885714Y-85702438D01*
X143885714Y-85702438D02*
X143933333Y-85750057D01*
X144266667Y-85654819D02*
X144885714Y-85654819D01*
X144885714Y-85654819D02*
X144552381Y-86035771D01*
X144552381Y-86035771D02*
X144695238Y-86035771D01*
X144695238Y-86035771D02*
X144790476Y-86083390D01*
X144790476Y-86083390D02*
X144838095Y-86131009D01*
X144838095Y-86131009D02*
X144885714Y-86226247D01*
X144885714Y-86226247D02*
X144885714Y-86464342D01*
X144885714Y-86464342D02*
X144838095Y-86559580D01*
X144838095Y-86559580D02*
X144790476Y-86607200D01*
X144790476Y-86607200D02*
X144695238Y-86654819D01*
X144695238Y-86654819D02*
X144409524Y-86654819D01*
X144409524Y-86654819D02*
X144314286Y-86607200D01*
X144314286Y-86607200D02*
X144266667Y-86559580D01*
X143259580Y-80902857D02*
X143307200Y-80950476D01*
X143307200Y-80950476D02*
X143354819Y-81093333D01*
X143354819Y-81093333D02*
X143354819Y-81188571D01*
X143354819Y-81188571D02*
X143307200Y-81331428D01*
X143307200Y-81331428D02*
X143211961Y-81426666D01*
X143211961Y-81426666D02*
X143116723Y-81474285D01*
X143116723Y-81474285D02*
X142926247Y-81521904D01*
X142926247Y-81521904D02*
X142783390Y-81521904D01*
X142783390Y-81521904D02*
X142592914Y-81474285D01*
X142592914Y-81474285D02*
X142497676Y-81426666D01*
X142497676Y-81426666D02*
X142402438Y-81331428D01*
X142402438Y-81331428D02*
X142354819Y-81188571D01*
X142354819Y-81188571D02*
X142354819Y-81093333D01*
X142354819Y-81093333D02*
X142402438Y-80950476D01*
X142402438Y-80950476D02*
X142450057Y-80902857D01*
X142450057Y-80521904D02*
X142402438Y-80474285D01*
X142402438Y-80474285D02*
X142354819Y-80379047D01*
X142354819Y-80379047D02*
X142354819Y-80140952D01*
X142354819Y-80140952D02*
X142402438Y-80045714D01*
X142402438Y-80045714D02*
X142450057Y-79998095D01*
X142450057Y-79998095D02*
X142545295Y-79950476D01*
X142545295Y-79950476D02*
X142640533Y-79950476D01*
X142640533Y-79950476D02*
X142783390Y-79998095D01*
X142783390Y-79998095D02*
X143354819Y-80569523D01*
X143354819Y-80569523D02*
X143354819Y-79950476D01*
X142354819Y-79331428D02*
X142354819Y-79236190D01*
X142354819Y-79236190D02*
X142402438Y-79140952D01*
X142402438Y-79140952D02*
X142450057Y-79093333D01*
X142450057Y-79093333D02*
X142545295Y-79045714D01*
X142545295Y-79045714D02*
X142735771Y-78998095D01*
X142735771Y-78998095D02*
X142973866Y-78998095D01*
X142973866Y-78998095D02*
X143164342Y-79045714D01*
X143164342Y-79045714D02*
X143259580Y-79093333D01*
X143259580Y-79093333D02*
X143307200Y-79140952D01*
X143307200Y-79140952D02*
X143354819Y-79236190D01*
X143354819Y-79236190D02*
X143354819Y-79331428D01*
X143354819Y-79331428D02*
X143307200Y-79426666D01*
X143307200Y-79426666D02*
X143259580Y-79474285D01*
X143259580Y-79474285D02*
X143164342Y-79521904D01*
X143164342Y-79521904D02*
X142973866Y-79569523D01*
X142973866Y-79569523D02*
X142735771Y-79569523D01*
X142735771Y-79569523D02*
X142545295Y-79521904D01*
X142545295Y-79521904D02*
X142450057Y-79474285D01*
X142450057Y-79474285D02*
X142402438Y-79426666D01*
X142402438Y-79426666D02*
X142354819Y-79331428D01*
X148258333Y-70084580D02*
X148210714Y-70132200D01*
X148210714Y-70132200D02*
X148067857Y-70179819D01*
X148067857Y-70179819D02*
X147972619Y-70179819D01*
X147972619Y-70179819D02*
X147829762Y-70132200D01*
X147829762Y-70132200D02*
X147734524Y-70036961D01*
X147734524Y-70036961D02*
X147686905Y-69941723D01*
X147686905Y-69941723D02*
X147639286Y-69751247D01*
X147639286Y-69751247D02*
X147639286Y-69608390D01*
X147639286Y-69608390D02*
X147686905Y-69417914D01*
X147686905Y-69417914D02*
X147734524Y-69322676D01*
X147734524Y-69322676D02*
X147829762Y-69227438D01*
X147829762Y-69227438D02*
X147972619Y-69179819D01*
X147972619Y-69179819D02*
X148067857Y-69179819D01*
X148067857Y-69179819D02*
X148210714Y-69227438D01*
X148210714Y-69227438D02*
X148258333Y-69275057D01*
X148639286Y-69275057D02*
X148686905Y-69227438D01*
X148686905Y-69227438D02*
X148782143Y-69179819D01*
X148782143Y-69179819D02*
X149020238Y-69179819D01*
X149020238Y-69179819D02*
X149115476Y-69227438D01*
X149115476Y-69227438D02*
X149163095Y-69275057D01*
X149163095Y-69275057D02*
X149210714Y-69370295D01*
X149210714Y-69370295D02*
X149210714Y-69465533D01*
X149210714Y-69465533D02*
X149163095Y-69608390D01*
X149163095Y-69608390D02*
X148591667Y-70179819D01*
X148591667Y-70179819D02*
X149210714Y-70179819D01*
X122508333Y-78029819D02*
X122032143Y-78029819D01*
X122032143Y-78029819D02*
X122032143Y-77029819D01*
X122746429Y-77029819D02*
X123413095Y-77029819D01*
X123413095Y-77029819D02*
X122984524Y-78029819D01*
X142195380Y-87629366D02*
X142243000Y-87676985D01*
X142243000Y-87676985D02*
X142290619Y-87819842D01*
X142290619Y-87819842D02*
X142290619Y-87915080D01*
X142290619Y-87915080D02*
X142243000Y-88057937D01*
X142243000Y-88057937D02*
X142147761Y-88153175D01*
X142147761Y-88153175D02*
X142052523Y-88200794D01*
X142052523Y-88200794D02*
X141862047Y-88248413D01*
X141862047Y-88248413D02*
X141719190Y-88248413D01*
X141719190Y-88248413D02*
X141528714Y-88200794D01*
X141528714Y-88200794D02*
X141433476Y-88153175D01*
X141433476Y-88153175D02*
X141338238Y-88057937D01*
X141338238Y-88057937D02*
X141290619Y-87915080D01*
X141290619Y-87915080D02*
X141290619Y-87819842D01*
X141290619Y-87819842D02*
X141338238Y-87676985D01*
X141338238Y-87676985D02*
X141385857Y-87629366D01*
X141290619Y-87296032D02*
X141290619Y-86629366D01*
X141290619Y-86629366D02*
X142290619Y-87057937D01*
X155307142Y-78389580D02*
X155259523Y-78437200D01*
X155259523Y-78437200D02*
X155116666Y-78484819D01*
X155116666Y-78484819D02*
X155021428Y-78484819D01*
X155021428Y-78484819D02*
X154878571Y-78437200D01*
X154878571Y-78437200D02*
X154783333Y-78341961D01*
X154783333Y-78341961D02*
X154735714Y-78246723D01*
X154735714Y-78246723D02*
X154688095Y-78056247D01*
X154688095Y-78056247D02*
X154688095Y-77913390D01*
X154688095Y-77913390D02*
X154735714Y-77722914D01*
X154735714Y-77722914D02*
X154783333Y-77627676D01*
X154783333Y-77627676D02*
X154878571Y-77532438D01*
X154878571Y-77532438D02*
X155021428Y-77484819D01*
X155021428Y-77484819D02*
X155116666Y-77484819D01*
X155116666Y-77484819D02*
X155259523Y-77532438D01*
X155259523Y-77532438D02*
X155307142Y-77580057D01*
X156259523Y-78484819D02*
X155688095Y-78484819D01*
X155973809Y-78484819D02*
X155973809Y-77484819D01*
X155973809Y-77484819D02*
X155878571Y-77627676D01*
X155878571Y-77627676D02*
X155783333Y-77722914D01*
X155783333Y-77722914D02*
X155688095Y-77770533D01*
X157164285Y-77484819D02*
X156688095Y-77484819D01*
X156688095Y-77484819D02*
X156640476Y-77961009D01*
X156640476Y-77961009D02*
X156688095Y-77913390D01*
X156688095Y-77913390D02*
X156783333Y-77865771D01*
X156783333Y-77865771D02*
X157021428Y-77865771D01*
X157021428Y-77865771D02*
X157116666Y-77913390D01*
X157116666Y-77913390D02*
X157164285Y-77961009D01*
X157164285Y-77961009D02*
X157211904Y-78056247D01*
X157211904Y-78056247D02*
X157211904Y-78294342D01*
X157211904Y-78294342D02*
X157164285Y-78389580D01*
X157164285Y-78389580D02*
X157116666Y-78437200D01*
X157116666Y-78437200D02*
X157021428Y-78484819D01*
X157021428Y-78484819D02*
X156783333Y-78484819D01*
X156783333Y-78484819D02*
X156688095Y-78437200D01*
X156688095Y-78437200D02*
X156640476Y-78389580D01*
X137381580Y-94034866D02*
X137429200Y-94082485D01*
X137429200Y-94082485D02*
X137476819Y-94225342D01*
X137476819Y-94225342D02*
X137476819Y-94320580D01*
X137476819Y-94320580D02*
X137429200Y-94463437D01*
X137429200Y-94463437D02*
X137333961Y-94558675D01*
X137333961Y-94558675D02*
X137238723Y-94606294D01*
X137238723Y-94606294D02*
X137048247Y-94653913D01*
X137048247Y-94653913D02*
X136905390Y-94653913D01*
X136905390Y-94653913D02*
X136714914Y-94606294D01*
X136714914Y-94606294D02*
X136619676Y-94558675D01*
X136619676Y-94558675D02*
X136524438Y-94463437D01*
X136524438Y-94463437D02*
X136476819Y-94320580D01*
X136476819Y-94320580D02*
X136476819Y-94225342D01*
X136476819Y-94225342D02*
X136524438Y-94082485D01*
X136524438Y-94082485D02*
X136572057Y-94034866D01*
X136476819Y-93177723D02*
X136476819Y-93368199D01*
X136476819Y-93368199D02*
X136524438Y-93463437D01*
X136524438Y-93463437D02*
X136572057Y-93511056D01*
X136572057Y-93511056D02*
X136714914Y-93606294D01*
X136714914Y-93606294D02*
X136905390Y-93653913D01*
X136905390Y-93653913D02*
X137286342Y-93653913D01*
X137286342Y-93653913D02*
X137381580Y-93606294D01*
X137381580Y-93606294D02*
X137429200Y-93558675D01*
X137429200Y-93558675D02*
X137476819Y-93463437D01*
X137476819Y-93463437D02*
X137476819Y-93272961D01*
X137476819Y-93272961D02*
X137429200Y-93177723D01*
X137429200Y-93177723D02*
X137381580Y-93130104D01*
X137381580Y-93130104D02*
X137286342Y-93082485D01*
X137286342Y-93082485D02*
X137048247Y-93082485D01*
X137048247Y-93082485D02*
X136953009Y-93130104D01*
X136953009Y-93130104D02*
X136905390Y-93177723D01*
X136905390Y-93177723D02*
X136857771Y-93272961D01*
X136857771Y-93272961D02*
X136857771Y-93463437D01*
X136857771Y-93463437D02*
X136905390Y-93558675D01*
X136905390Y-93558675D02*
X136953009Y-93606294D01*
X136953009Y-93606294D02*
X137048247Y-93653913D01*
X150297142Y-86220980D02*
X150249523Y-86268600D01*
X150249523Y-86268600D02*
X150106666Y-86316219D01*
X150106666Y-86316219D02*
X150011428Y-86316219D01*
X150011428Y-86316219D02*
X149868571Y-86268600D01*
X149868571Y-86268600D02*
X149773333Y-86173361D01*
X149773333Y-86173361D02*
X149725714Y-86078123D01*
X149725714Y-86078123D02*
X149678095Y-85887647D01*
X149678095Y-85887647D02*
X149678095Y-85744790D01*
X149678095Y-85744790D02*
X149725714Y-85554314D01*
X149725714Y-85554314D02*
X149773333Y-85459076D01*
X149773333Y-85459076D02*
X149868571Y-85363838D01*
X149868571Y-85363838D02*
X150011428Y-85316219D01*
X150011428Y-85316219D02*
X150106666Y-85316219D01*
X150106666Y-85316219D02*
X150249523Y-85363838D01*
X150249523Y-85363838D02*
X150297142Y-85411457D01*
X150678095Y-85411457D02*
X150725714Y-85363838D01*
X150725714Y-85363838D02*
X150820952Y-85316219D01*
X150820952Y-85316219D02*
X151059047Y-85316219D01*
X151059047Y-85316219D02*
X151154285Y-85363838D01*
X151154285Y-85363838D02*
X151201904Y-85411457D01*
X151201904Y-85411457D02*
X151249523Y-85506695D01*
X151249523Y-85506695D02*
X151249523Y-85601933D01*
X151249523Y-85601933D02*
X151201904Y-85744790D01*
X151201904Y-85744790D02*
X150630476Y-86316219D01*
X150630476Y-86316219D02*
X151249523Y-86316219D01*
X151630476Y-85411457D02*
X151678095Y-85363838D01*
X151678095Y-85363838D02*
X151773333Y-85316219D01*
X151773333Y-85316219D02*
X152011428Y-85316219D01*
X152011428Y-85316219D02*
X152106666Y-85363838D01*
X152106666Y-85363838D02*
X152154285Y-85411457D01*
X152154285Y-85411457D02*
X152201904Y-85506695D01*
X152201904Y-85506695D02*
X152201904Y-85601933D01*
X152201904Y-85601933D02*
X152154285Y-85744790D01*
X152154285Y-85744790D02*
X151582857Y-86316219D01*
X151582857Y-86316219D02*
X152201904Y-86316219D01*
X140897019Y-92134966D02*
X140897019Y-92611156D01*
X140897019Y-92611156D02*
X139897019Y-92611156D01*
X139992257Y-91849251D02*
X139944638Y-91801632D01*
X139944638Y-91801632D02*
X139897019Y-91706394D01*
X139897019Y-91706394D02*
X139897019Y-91468299D01*
X139897019Y-91468299D02*
X139944638Y-91373061D01*
X139944638Y-91373061D02*
X139992257Y-91325442D01*
X139992257Y-91325442D02*
X140087495Y-91277823D01*
X140087495Y-91277823D02*
X140182733Y-91277823D01*
X140182733Y-91277823D02*
X140325590Y-91325442D01*
X140325590Y-91325442D02*
X140897019Y-91896870D01*
X140897019Y-91896870D02*
X140897019Y-91277823D01*
X141940942Y-68098780D02*
X141893323Y-68146400D01*
X141893323Y-68146400D02*
X141750466Y-68194019D01*
X141750466Y-68194019D02*
X141655228Y-68194019D01*
X141655228Y-68194019D02*
X141512371Y-68146400D01*
X141512371Y-68146400D02*
X141417133Y-68051161D01*
X141417133Y-68051161D02*
X141369514Y-67955923D01*
X141369514Y-67955923D02*
X141321895Y-67765447D01*
X141321895Y-67765447D02*
X141321895Y-67622590D01*
X141321895Y-67622590D02*
X141369514Y-67432114D01*
X141369514Y-67432114D02*
X141417133Y-67336876D01*
X141417133Y-67336876D02*
X141512371Y-67241638D01*
X141512371Y-67241638D02*
X141655228Y-67194019D01*
X141655228Y-67194019D02*
X141750466Y-67194019D01*
X141750466Y-67194019D02*
X141893323Y-67241638D01*
X141893323Y-67241638D02*
X141940942Y-67289257D01*
X142893323Y-68194019D02*
X142321895Y-68194019D01*
X142607609Y-68194019D02*
X142607609Y-67194019D01*
X142607609Y-67194019D02*
X142512371Y-67336876D01*
X142512371Y-67336876D02*
X142417133Y-67432114D01*
X142417133Y-67432114D02*
X142321895Y-67479733D01*
X143226657Y-67194019D02*
X143845704Y-67194019D01*
X143845704Y-67194019D02*
X143512371Y-67574971D01*
X143512371Y-67574971D02*
X143655228Y-67574971D01*
X143655228Y-67574971D02*
X143750466Y-67622590D01*
X143750466Y-67622590D02*
X143798085Y-67670209D01*
X143798085Y-67670209D02*
X143845704Y-67765447D01*
X143845704Y-67765447D02*
X143845704Y-68003542D01*
X143845704Y-68003542D02*
X143798085Y-68098780D01*
X143798085Y-68098780D02*
X143750466Y-68146400D01*
X143750466Y-68146400D02*
X143655228Y-68194019D01*
X143655228Y-68194019D02*
X143369514Y-68194019D01*
X143369514Y-68194019D02*
X143274276Y-68146400D01*
X143274276Y-68146400D02*
X143226657Y-68098780D01*
X147501780Y-89533266D02*
X147549400Y-89580885D01*
X147549400Y-89580885D02*
X147597019Y-89723742D01*
X147597019Y-89723742D02*
X147597019Y-89818980D01*
X147597019Y-89818980D02*
X147549400Y-89961837D01*
X147549400Y-89961837D02*
X147454161Y-90057075D01*
X147454161Y-90057075D02*
X147358923Y-90104694D01*
X147358923Y-90104694D02*
X147168447Y-90152313D01*
X147168447Y-90152313D02*
X147025590Y-90152313D01*
X147025590Y-90152313D02*
X146835114Y-90104694D01*
X146835114Y-90104694D02*
X146739876Y-90057075D01*
X146739876Y-90057075D02*
X146644638Y-89961837D01*
X146644638Y-89961837D02*
X146597019Y-89818980D01*
X146597019Y-89818980D02*
X146597019Y-89723742D01*
X146597019Y-89723742D02*
X146644638Y-89580885D01*
X146644638Y-89580885D02*
X146692257Y-89533266D01*
X146597019Y-88628504D02*
X146597019Y-89104694D01*
X146597019Y-89104694D02*
X147073209Y-89152313D01*
X147073209Y-89152313D02*
X147025590Y-89104694D01*
X147025590Y-89104694D02*
X146977971Y-89009456D01*
X146977971Y-89009456D02*
X146977971Y-88771361D01*
X146977971Y-88771361D02*
X147025590Y-88676123D01*
X147025590Y-88676123D02*
X147073209Y-88628504D01*
X147073209Y-88628504D02*
X147168447Y-88580885D01*
X147168447Y-88580885D02*
X147406542Y-88580885D01*
X147406542Y-88580885D02*
X147501780Y-88628504D01*
X147501780Y-88628504D02*
X147549400Y-88676123D01*
X147549400Y-88676123D02*
X147597019Y-88771361D01*
X147597019Y-88771361D02*
X147597019Y-89009456D01*
X147597019Y-89009456D02*
X147549400Y-89104694D01*
X147549400Y-89104694D02*
X147501780Y-89152313D01*
X124509580Y-85925357D02*
X124557200Y-85972976D01*
X124557200Y-85972976D02*
X124604819Y-86115833D01*
X124604819Y-86115833D02*
X124604819Y-86211071D01*
X124604819Y-86211071D02*
X124557200Y-86353928D01*
X124557200Y-86353928D02*
X124461961Y-86449166D01*
X124461961Y-86449166D02*
X124366723Y-86496785D01*
X124366723Y-86496785D02*
X124176247Y-86544404D01*
X124176247Y-86544404D02*
X124033390Y-86544404D01*
X124033390Y-86544404D02*
X123842914Y-86496785D01*
X123842914Y-86496785D02*
X123747676Y-86449166D01*
X123747676Y-86449166D02*
X123652438Y-86353928D01*
X123652438Y-86353928D02*
X123604819Y-86211071D01*
X123604819Y-86211071D02*
X123604819Y-86115833D01*
X123604819Y-86115833D02*
X123652438Y-85972976D01*
X123652438Y-85972976D02*
X123700057Y-85925357D01*
X123700057Y-85544404D02*
X123652438Y-85496785D01*
X123652438Y-85496785D02*
X123604819Y-85401547D01*
X123604819Y-85401547D02*
X123604819Y-85163452D01*
X123604819Y-85163452D02*
X123652438Y-85068214D01*
X123652438Y-85068214D02*
X123700057Y-85020595D01*
X123700057Y-85020595D02*
X123795295Y-84972976D01*
X123795295Y-84972976D02*
X123890533Y-84972976D01*
X123890533Y-84972976D02*
X124033390Y-85020595D01*
X124033390Y-85020595D02*
X124604819Y-85592023D01*
X124604819Y-85592023D02*
X124604819Y-84972976D01*
X123604819Y-84115833D02*
X123604819Y-84306309D01*
X123604819Y-84306309D02*
X123652438Y-84401547D01*
X123652438Y-84401547D02*
X123700057Y-84449166D01*
X123700057Y-84449166D02*
X123842914Y-84544404D01*
X123842914Y-84544404D02*
X124033390Y-84592023D01*
X124033390Y-84592023D02*
X124414342Y-84592023D01*
X124414342Y-84592023D02*
X124509580Y-84544404D01*
X124509580Y-84544404D02*
X124557200Y-84496785D01*
X124557200Y-84496785D02*
X124604819Y-84401547D01*
X124604819Y-84401547D02*
X124604819Y-84211071D01*
X124604819Y-84211071D02*
X124557200Y-84115833D01*
X124557200Y-84115833D02*
X124509580Y-84068214D01*
X124509580Y-84068214D02*
X124414342Y-84020595D01*
X124414342Y-84020595D02*
X124176247Y-84020595D01*
X124176247Y-84020595D02*
X124081009Y-84068214D01*
X124081009Y-84068214D02*
X124033390Y-84115833D01*
X124033390Y-84115833D02*
X123985771Y-84211071D01*
X123985771Y-84211071D02*
X123985771Y-84401547D01*
X123985771Y-84401547D02*
X124033390Y-84496785D01*
X124033390Y-84496785D02*
X124081009Y-84544404D01*
X124081009Y-84544404D02*
X124176247Y-84592023D01*
X116724819Y-71654166D02*
X116248628Y-71987499D01*
X116724819Y-72225594D02*
X115724819Y-72225594D01*
X115724819Y-72225594D02*
X115724819Y-71844642D01*
X115724819Y-71844642D02*
X115772438Y-71749404D01*
X115772438Y-71749404D02*
X115820057Y-71701785D01*
X115820057Y-71701785D02*
X115915295Y-71654166D01*
X115915295Y-71654166D02*
X116058152Y-71654166D01*
X116058152Y-71654166D02*
X116153390Y-71701785D01*
X116153390Y-71701785D02*
X116201009Y-71749404D01*
X116201009Y-71749404D02*
X116248628Y-71844642D01*
X116248628Y-71844642D02*
X116248628Y-72225594D01*
X115724819Y-70797023D02*
X115724819Y-70987499D01*
X115724819Y-70987499D02*
X115772438Y-71082737D01*
X115772438Y-71082737D02*
X115820057Y-71130356D01*
X115820057Y-71130356D02*
X115962914Y-71225594D01*
X115962914Y-71225594D02*
X116153390Y-71273213D01*
X116153390Y-71273213D02*
X116534342Y-71273213D01*
X116534342Y-71273213D02*
X116629580Y-71225594D01*
X116629580Y-71225594D02*
X116677200Y-71177975D01*
X116677200Y-71177975D02*
X116724819Y-71082737D01*
X116724819Y-71082737D02*
X116724819Y-70892261D01*
X116724819Y-70892261D02*
X116677200Y-70797023D01*
X116677200Y-70797023D02*
X116629580Y-70749404D01*
X116629580Y-70749404D02*
X116534342Y-70701785D01*
X116534342Y-70701785D02*
X116296247Y-70701785D01*
X116296247Y-70701785D02*
X116201009Y-70749404D01*
X116201009Y-70749404D02*
X116153390Y-70797023D01*
X116153390Y-70797023D02*
X116105771Y-70892261D01*
X116105771Y-70892261D02*
X116105771Y-71082737D01*
X116105771Y-71082737D02*
X116153390Y-71177975D01*
X116153390Y-71177975D02*
X116201009Y-71225594D01*
X116201009Y-71225594D02*
X116296247Y-71273213D01*
X130908333Y-79554819D02*
X130575000Y-79078628D01*
X130336905Y-79554819D02*
X130336905Y-78554819D01*
X130336905Y-78554819D02*
X130717857Y-78554819D01*
X130717857Y-78554819D02*
X130813095Y-78602438D01*
X130813095Y-78602438D02*
X130860714Y-78650057D01*
X130860714Y-78650057D02*
X130908333Y-78745295D01*
X130908333Y-78745295D02*
X130908333Y-78888152D01*
X130908333Y-78888152D02*
X130860714Y-78983390D01*
X130860714Y-78983390D02*
X130813095Y-79031009D01*
X130813095Y-79031009D02*
X130717857Y-79078628D01*
X130717857Y-79078628D02*
X130336905Y-79078628D01*
X131765476Y-78888152D02*
X131765476Y-79554819D01*
X131527381Y-78507200D02*
X131289286Y-79221485D01*
X131289286Y-79221485D02*
X131908333Y-79221485D01*
X120894819Y-89903333D02*
X121609104Y-89903333D01*
X121609104Y-89903333D02*
X121751961Y-89950952D01*
X121751961Y-89950952D02*
X121847200Y-90046190D01*
X121847200Y-90046190D02*
X121894819Y-90189047D01*
X121894819Y-90189047D02*
X121894819Y-90284285D01*
X121894819Y-88903333D02*
X121894819Y-89474761D01*
X121894819Y-89189047D02*
X120894819Y-89189047D01*
X120894819Y-89189047D02*
X121037676Y-89284285D01*
X121037676Y-89284285D02*
X121132914Y-89379523D01*
X121132914Y-89379523D02*
X121180533Y-89474761D01*
X158258333Y-79404819D02*
X157782143Y-79404819D01*
X157782143Y-79404819D02*
X157782143Y-78404819D01*
X158734524Y-78833390D02*
X158639286Y-78785771D01*
X158639286Y-78785771D02*
X158591667Y-78738152D01*
X158591667Y-78738152D02*
X158544048Y-78642914D01*
X158544048Y-78642914D02*
X158544048Y-78595295D01*
X158544048Y-78595295D02*
X158591667Y-78500057D01*
X158591667Y-78500057D02*
X158639286Y-78452438D01*
X158639286Y-78452438D02*
X158734524Y-78404819D01*
X158734524Y-78404819D02*
X158925000Y-78404819D01*
X158925000Y-78404819D02*
X159020238Y-78452438D01*
X159020238Y-78452438D02*
X159067857Y-78500057D01*
X159067857Y-78500057D02*
X159115476Y-78595295D01*
X159115476Y-78595295D02*
X159115476Y-78642914D01*
X159115476Y-78642914D02*
X159067857Y-78738152D01*
X159067857Y-78738152D02*
X159020238Y-78785771D01*
X159020238Y-78785771D02*
X158925000Y-78833390D01*
X158925000Y-78833390D02*
X158734524Y-78833390D01*
X158734524Y-78833390D02*
X158639286Y-78881009D01*
X158639286Y-78881009D02*
X158591667Y-78928628D01*
X158591667Y-78928628D02*
X158544048Y-79023866D01*
X158544048Y-79023866D02*
X158544048Y-79214342D01*
X158544048Y-79214342D02*
X158591667Y-79309580D01*
X158591667Y-79309580D02*
X158639286Y-79357200D01*
X158639286Y-79357200D02*
X158734524Y-79404819D01*
X158734524Y-79404819D02*
X158925000Y-79404819D01*
X158925000Y-79404819D02*
X159020238Y-79357200D01*
X159020238Y-79357200D02*
X159067857Y-79309580D01*
X159067857Y-79309580D02*
X159115476Y-79214342D01*
X159115476Y-79214342D02*
X159115476Y-79023866D01*
X159115476Y-79023866D02*
X159067857Y-78928628D01*
X159067857Y-78928628D02*
X159020238Y-78881009D01*
X159020238Y-78881009D02*
X158925000Y-78833390D01*
X139159580Y-87635166D02*
X139207200Y-87682785D01*
X139207200Y-87682785D02*
X139254819Y-87825642D01*
X139254819Y-87825642D02*
X139254819Y-87920880D01*
X139254819Y-87920880D02*
X139207200Y-88063737D01*
X139207200Y-88063737D02*
X139111961Y-88158975D01*
X139111961Y-88158975D02*
X139016723Y-88206594D01*
X139016723Y-88206594D02*
X138826247Y-88254213D01*
X138826247Y-88254213D02*
X138683390Y-88254213D01*
X138683390Y-88254213D02*
X138492914Y-88206594D01*
X138492914Y-88206594D02*
X138397676Y-88158975D01*
X138397676Y-88158975D02*
X138302438Y-88063737D01*
X138302438Y-88063737D02*
X138254819Y-87920880D01*
X138254819Y-87920880D02*
X138254819Y-87825642D01*
X138254819Y-87825642D02*
X138302438Y-87682785D01*
X138302438Y-87682785D02*
X138350057Y-87635166D01*
X138683390Y-87063737D02*
X138635771Y-87158975D01*
X138635771Y-87158975D02*
X138588152Y-87206594D01*
X138588152Y-87206594D02*
X138492914Y-87254213D01*
X138492914Y-87254213D02*
X138445295Y-87254213D01*
X138445295Y-87254213D02*
X138350057Y-87206594D01*
X138350057Y-87206594D02*
X138302438Y-87158975D01*
X138302438Y-87158975D02*
X138254819Y-87063737D01*
X138254819Y-87063737D02*
X138254819Y-86873261D01*
X138254819Y-86873261D02*
X138302438Y-86778023D01*
X138302438Y-86778023D02*
X138350057Y-86730404D01*
X138350057Y-86730404D02*
X138445295Y-86682785D01*
X138445295Y-86682785D02*
X138492914Y-86682785D01*
X138492914Y-86682785D02*
X138588152Y-86730404D01*
X138588152Y-86730404D02*
X138635771Y-86778023D01*
X138635771Y-86778023D02*
X138683390Y-86873261D01*
X138683390Y-86873261D02*
X138683390Y-87063737D01*
X138683390Y-87063737D02*
X138731009Y-87158975D01*
X138731009Y-87158975D02*
X138778628Y-87206594D01*
X138778628Y-87206594D02*
X138873866Y-87254213D01*
X138873866Y-87254213D02*
X139064342Y-87254213D01*
X139064342Y-87254213D02*
X139159580Y-87206594D01*
X139159580Y-87206594D02*
X139207200Y-87158975D01*
X139207200Y-87158975D02*
X139254819Y-87063737D01*
X139254819Y-87063737D02*
X139254819Y-86873261D01*
X139254819Y-86873261D02*
X139207200Y-86778023D01*
X139207200Y-86778023D02*
X139159580Y-86730404D01*
X139159580Y-86730404D02*
X139064342Y-86682785D01*
X139064342Y-86682785D02*
X138873866Y-86682785D01*
X138873866Y-86682785D02*
X138778628Y-86730404D01*
X138778628Y-86730404D02*
X138731009Y-86778023D01*
X138731009Y-86778023D02*
X138683390Y-86873261D01*
X148886942Y-95161780D02*
X148839323Y-95209400D01*
X148839323Y-95209400D02*
X148696466Y-95257019D01*
X148696466Y-95257019D02*
X148601228Y-95257019D01*
X148601228Y-95257019D02*
X148458371Y-95209400D01*
X148458371Y-95209400D02*
X148363133Y-95114161D01*
X148363133Y-95114161D02*
X148315514Y-95018923D01*
X148315514Y-95018923D02*
X148267895Y-94828447D01*
X148267895Y-94828447D02*
X148267895Y-94685590D01*
X148267895Y-94685590D02*
X148315514Y-94495114D01*
X148315514Y-94495114D02*
X148363133Y-94399876D01*
X148363133Y-94399876D02*
X148458371Y-94304638D01*
X148458371Y-94304638D02*
X148601228Y-94257019D01*
X148601228Y-94257019D02*
X148696466Y-94257019D01*
X148696466Y-94257019D02*
X148839323Y-94304638D01*
X148839323Y-94304638D02*
X148886942Y-94352257D01*
X149839323Y-95257019D02*
X149267895Y-95257019D01*
X149553609Y-95257019D02*
X149553609Y-94257019D01*
X149553609Y-94257019D02*
X149458371Y-94399876D01*
X149458371Y-94399876D02*
X149363133Y-94495114D01*
X149363133Y-94495114D02*
X149267895Y-94542733D01*
X150791704Y-95257019D02*
X150220276Y-95257019D01*
X150505990Y-95257019D02*
X150505990Y-94257019D01*
X150505990Y-94257019D02*
X150410752Y-94399876D01*
X150410752Y-94399876D02*
X150315514Y-94495114D01*
X150315514Y-94495114D02*
X150220276Y-94542733D01*
X120180595Y-64634819D02*
X120180595Y-65444342D01*
X120180595Y-65444342D02*
X120228214Y-65539580D01*
X120228214Y-65539580D02*
X120275833Y-65587200D01*
X120275833Y-65587200D02*
X120371071Y-65634819D01*
X120371071Y-65634819D02*
X120561547Y-65634819D01*
X120561547Y-65634819D02*
X120656785Y-65587200D01*
X120656785Y-65587200D02*
X120704404Y-65539580D01*
X120704404Y-65539580D02*
X120752023Y-65444342D01*
X120752023Y-65444342D02*
X120752023Y-64634819D01*
X121704404Y-64634819D02*
X121228214Y-64634819D01*
X121228214Y-64634819D02*
X121180595Y-65111009D01*
X121180595Y-65111009D02*
X121228214Y-65063390D01*
X121228214Y-65063390D02*
X121323452Y-65015771D01*
X121323452Y-65015771D02*
X121561547Y-65015771D01*
X121561547Y-65015771D02*
X121656785Y-65063390D01*
X121656785Y-65063390D02*
X121704404Y-65111009D01*
X121704404Y-65111009D02*
X121752023Y-65206247D01*
X121752023Y-65206247D02*
X121752023Y-65444342D01*
X121752023Y-65444342D02*
X121704404Y-65539580D01*
X121704404Y-65539580D02*
X121656785Y-65587200D01*
X121656785Y-65587200D02*
X121561547Y-65634819D01*
X121561547Y-65634819D02*
X121323452Y-65634819D01*
X121323452Y-65634819D02*
X121228214Y-65587200D01*
X121228214Y-65587200D02*
X121180595Y-65539580D01*
X119226666Y-77944819D02*
X119226666Y-78659104D01*
X119226666Y-78659104D02*
X119179047Y-78801961D01*
X119179047Y-78801961D02*
X119083809Y-78897200D01*
X119083809Y-78897200D02*
X118940952Y-78944819D01*
X118940952Y-78944819D02*
X118845714Y-78944819D01*
X119607619Y-77944819D02*
X120226666Y-77944819D01*
X120226666Y-77944819D02*
X119893333Y-78325771D01*
X119893333Y-78325771D02*
X120036190Y-78325771D01*
X120036190Y-78325771D02*
X120131428Y-78373390D01*
X120131428Y-78373390D02*
X120179047Y-78421009D01*
X120179047Y-78421009D02*
X120226666Y-78516247D01*
X120226666Y-78516247D02*
X120226666Y-78754342D01*
X120226666Y-78754342D02*
X120179047Y-78849580D01*
X120179047Y-78849580D02*
X120131428Y-78897200D01*
X120131428Y-78897200D02*
X120036190Y-78944819D01*
X120036190Y-78944819D02*
X119750476Y-78944819D01*
X119750476Y-78944819D02*
X119655238Y-78897200D01*
X119655238Y-78897200D02*
X119607619Y-78849580D01*
X125408095Y-83834819D02*
X125408095Y-84644342D01*
X125408095Y-84644342D02*
X125455714Y-84739580D01*
X125455714Y-84739580D02*
X125503333Y-84787200D01*
X125503333Y-84787200D02*
X125598571Y-84834819D01*
X125598571Y-84834819D02*
X125789047Y-84834819D01*
X125789047Y-84834819D02*
X125884285Y-84787200D01*
X125884285Y-84787200D02*
X125931904Y-84739580D01*
X125931904Y-84739580D02*
X125979523Y-84644342D01*
X125979523Y-84644342D02*
X125979523Y-83834819D01*
X126884285Y-83834819D02*
X126693809Y-83834819D01*
X126693809Y-83834819D02*
X126598571Y-83882438D01*
X126598571Y-83882438D02*
X126550952Y-83930057D01*
X126550952Y-83930057D02*
X126455714Y-84072914D01*
X126455714Y-84072914D02*
X126408095Y-84263390D01*
X126408095Y-84263390D02*
X126408095Y-84644342D01*
X126408095Y-84644342D02*
X126455714Y-84739580D01*
X126455714Y-84739580D02*
X126503333Y-84787200D01*
X126503333Y-84787200D02*
X126598571Y-84834819D01*
X126598571Y-84834819D02*
X126789047Y-84834819D01*
X126789047Y-84834819D02*
X126884285Y-84787200D01*
X126884285Y-84787200D02*
X126931904Y-84739580D01*
X126931904Y-84739580D02*
X126979523Y-84644342D01*
X126979523Y-84644342D02*
X126979523Y-84406247D01*
X126979523Y-84406247D02*
X126931904Y-84311009D01*
X126931904Y-84311009D02*
X126884285Y-84263390D01*
X126884285Y-84263390D02*
X126789047Y-84215771D01*
X126789047Y-84215771D02*
X126598571Y-84215771D01*
X126598571Y-84215771D02*
X126503333Y-84263390D01*
X126503333Y-84263390D02*
X126455714Y-84311009D01*
X126455714Y-84311009D02*
X126408095Y-84406247D01*
X135558333Y-89879819D02*
X135082143Y-89879819D01*
X135082143Y-89879819D02*
X135082143Y-88879819D01*
X135796429Y-88879819D02*
X136415476Y-88879819D01*
X136415476Y-88879819D02*
X136082143Y-89260771D01*
X136082143Y-89260771D02*
X136225000Y-89260771D01*
X136225000Y-89260771D02*
X136320238Y-89308390D01*
X136320238Y-89308390D02*
X136367857Y-89356009D01*
X136367857Y-89356009D02*
X136415476Y-89451247D01*
X136415476Y-89451247D02*
X136415476Y-89689342D01*
X136415476Y-89689342D02*
X136367857Y-89784580D01*
X136367857Y-89784580D02*
X136320238Y-89832200D01*
X136320238Y-89832200D02*
X136225000Y-89879819D01*
X136225000Y-89879819D02*
X135939286Y-89879819D01*
X135939286Y-89879819D02*
X135844048Y-89832200D01*
X135844048Y-89832200D02*
X135796429Y-89784580D01*
X139392819Y-77331866D02*
X138916628Y-77665199D01*
X139392819Y-77903294D02*
X138392819Y-77903294D01*
X138392819Y-77903294D02*
X138392819Y-77522342D01*
X138392819Y-77522342D02*
X138440438Y-77427104D01*
X138440438Y-77427104D02*
X138488057Y-77379485D01*
X138488057Y-77379485D02*
X138583295Y-77331866D01*
X138583295Y-77331866D02*
X138726152Y-77331866D01*
X138726152Y-77331866D02*
X138821390Y-77379485D01*
X138821390Y-77379485D02*
X138869009Y-77427104D01*
X138869009Y-77427104D02*
X138916628Y-77522342D01*
X138916628Y-77522342D02*
X138916628Y-77903294D01*
X138392819Y-76998532D02*
X138392819Y-76379485D01*
X138392819Y-76379485D02*
X138773771Y-76712818D01*
X138773771Y-76712818D02*
X138773771Y-76569961D01*
X138773771Y-76569961D02*
X138821390Y-76474723D01*
X138821390Y-76474723D02*
X138869009Y-76427104D01*
X138869009Y-76427104D02*
X138964247Y-76379485D01*
X138964247Y-76379485D02*
X139202342Y-76379485D01*
X139202342Y-76379485D02*
X139297580Y-76427104D01*
X139297580Y-76427104D02*
X139345200Y-76474723D01*
X139345200Y-76474723D02*
X139392819Y-76569961D01*
X139392819Y-76569961D02*
X139392819Y-76855675D01*
X139392819Y-76855675D02*
X139345200Y-76950913D01*
X139345200Y-76950913D02*
X139297580Y-76998532D01*
X135001095Y-84697219D02*
X135001095Y-85506742D01*
X135001095Y-85506742D02*
X135048714Y-85601980D01*
X135048714Y-85601980D02*
X135096333Y-85649600D01*
X135096333Y-85649600D02*
X135191571Y-85697219D01*
X135191571Y-85697219D02*
X135382047Y-85697219D01*
X135382047Y-85697219D02*
X135477285Y-85649600D01*
X135477285Y-85649600D02*
X135524904Y-85601980D01*
X135524904Y-85601980D02*
X135572523Y-85506742D01*
X135572523Y-85506742D02*
X135572523Y-84697219D01*
X136001095Y-84792457D02*
X136048714Y-84744838D01*
X136048714Y-84744838D02*
X136143952Y-84697219D01*
X136143952Y-84697219D02*
X136382047Y-84697219D01*
X136382047Y-84697219D02*
X136477285Y-84744838D01*
X136477285Y-84744838D02*
X136524904Y-84792457D01*
X136524904Y-84792457D02*
X136572523Y-84887695D01*
X136572523Y-84887695D02*
X136572523Y-84982933D01*
X136572523Y-84982933D02*
X136524904Y-85125790D01*
X136524904Y-85125790D02*
X135953476Y-85697219D01*
X135953476Y-85697219D02*
X136572523Y-85697219D01*
X116724819Y-67804166D02*
X116248628Y-68137499D01*
X116724819Y-68375594D02*
X115724819Y-68375594D01*
X115724819Y-68375594D02*
X115724819Y-67994642D01*
X115724819Y-67994642D02*
X115772438Y-67899404D01*
X115772438Y-67899404D02*
X115820057Y-67851785D01*
X115820057Y-67851785D02*
X115915295Y-67804166D01*
X115915295Y-67804166D02*
X116058152Y-67804166D01*
X116058152Y-67804166D02*
X116153390Y-67851785D01*
X116153390Y-67851785D02*
X116201009Y-67899404D01*
X116201009Y-67899404D02*
X116248628Y-67994642D01*
X116248628Y-67994642D02*
X116248628Y-68375594D01*
X115724819Y-66899404D02*
X115724819Y-67375594D01*
X115724819Y-67375594D02*
X116201009Y-67423213D01*
X116201009Y-67423213D02*
X116153390Y-67375594D01*
X116153390Y-67375594D02*
X116105771Y-67280356D01*
X116105771Y-67280356D02*
X116105771Y-67042261D01*
X116105771Y-67042261D02*
X116153390Y-66947023D01*
X116153390Y-66947023D02*
X116201009Y-66899404D01*
X116201009Y-66899404D02*
X116296247Y-66851785D01*
X116296247Y-66851785D02*
X116534342Y-66851785D01*
X116534342Y-66851785D02*
X116629580Y-66899404D01*
X116629580Y-66899404D02*
X116677200Y-66947023D01*
X116677200Y-66947023D02*
X116724819Y-67042261D01*
X116724819Y-67042261D02*
X116724819Y-67280356D01*
X116724819Y-67280356D02*
X116677200Y-67375594D01*
X116677200Y-67375594D02*
X116629580Y-67423213D01*
X146457142Y-72759580D02*
X146409523Y-72807200D01*
X146409523Y-72807200D02*
X146266666Y-72854819D01*
X146266666Y-72854819D02*
X146171428Y-72854819D01*
X146171428Y-72854819D02*
X146028571Y-72807200D01*
X146028571Y-72807200D02*
X145933333Y-72711961D01*
X145933333Y-72711961D02*
X145885714Y-72616723D01*
X145885714Y-72616723D02*
X145838095Y-72426247D01*
X145838095Y-72426247D02*
X145838095Y-72283390D01*
X145838095Y-72283390D02*
X145885714Y-72092914D01*
X145885714Y-72092914D02*
X145933333Y-71997676D01*
X145933333Y-71997676D02*
X146028571Y-71902438D01*
X146028571Y-71902438D02*
X146171428Y-71854819D01*
X146171428Y-71854819D02*
X146266666Y-71854819D01*
X146266666Y-71854819D02*
X146409523Y-71902438D01*
X146409523Y-71902438D02*
X146457142Y-71950057D01*
X147409523Y-72854819D02*
X146838095Y-72854819D01*
X147123809Y-72854819D02*
X147123809Y-71854819D01*
X147123809Y-71854819D02*
X147028571Y-71997676D01*
X147028571Y-71997676D02*
X146933333Y-72092914D01*
X146933333Y-72092914D02*
X146838095Y-72140533D01*
X147742857Y-71854819D02*
X148409523Y-71854819D01*
X148409523Y-71854819D02*
X147980952Y-72854819D01*
X160217142Y-83119580D02*
X160169523Y-83167200D01*
X160169523Y-83167200D02*
X160026666Y-83214819D01*
X160026666Y-83214819D02*
X159931428Y-83214819D01*
X159931428Y-83214819D02*
X159788571Y-83167200D01*
X159788571Y-83167200D02*
X159693333Y-83071961D01*
X159693333Y-83071961D02*
X159645714Y-82976723D01*
X159645714Y-82976723D02*
X159598095Y-82786247D01*
X159598095Y-82786247D02*
X159598095Y-82643390D01*
X159598095Y-82643390D02*
X159645714Y-82452914D01*
X159645714Y-82452914D02*
X159693333Y-82357676D01*
X159693333Y-82357676D02*
X159788571Y-82262438D01*
X159788571Y-82262438D02*
X159931428Y-82214819D01*
X159931428Y-82214819D02*
X160026666Y-82214819D01*
X160026666Y-82214819D02*
X160169523Y-82262438D01*
X160169523Y-82262438D02*
X160217142Y-82310057D01*
X160598095Y-82310057D02*
X160645714Y-82262438D01*
X160645714Y-82262438D02*
X160740952Y-82214819D01*
X160740952Y-82214819D02*
X160979047Y-82214819D01*
X160979047Y-82214819D02*
X161074285Y-82262438D01*
X161074285Y-82262438D02*
X161121904Y-82310057D01*
X161121904Y-82310057D02*
X161169523Y-82405295D01*
X161169523Y-82405295D02*
X161169523Y-82500533D01*
X161169523Y-82500533D02*
X161121904Y-82643390D01*
X161121904Y-82643390D02*
X160550476Y-83214819D01*
X160550476Y-83214819D02*
X161169523Y-83214819D01*
X161502857Y-82214819D02*
X162169523Y-82214819D01*
X162169523Y-82214819D02*
X161740952Y-83214819D01*
X160813809Y-78718628D02*
X160813809Y-79194819D01*
X160480476Y-78194819D02*
X160813809Y-78718628D01*
X160813809Y-78718628D02*
X161147142Y-78194819D01*
X161432857Y-78290057D02*
X161480476Y-78242438D01*
X161480476Y-78242438D02*
X161575714Y-78194819D01*
X161575714Y-78194819D02*
X161813809Y-78194819D01*
X161813809Y-78194819D02*
X161909047Y-78242438D01*
X161909047Y-78242438D02*
X161956666Y-78290057D01*
X161956666Y-78290057D02*
X162004285Y-78385295D01*
X162004285Y-78385295D02*
X162004285Y-78480533D01*
X162004285Y-78480533D02*
X161956666Y-78623390D01*
X161956666Y-78623390D02*
X161385238Y-79194819D01*
X161385238Y-79194819D02*
X162004285Y-79194819D01*
X150424819Y-88909666D02*
X150424819Y-89385856D01*
X150424819Y-89385856D02*
X149424819Y-89385856D01*
X150424819Y-88052523D02*
X150424819Y-88623951D01*
X150424819Y-88338237D02*
X149424819Y-88338237D01*
X149424819Y-88338237D02*
X149567676Y-88433475D01*
X149567676Y-88433475D02*
X149662914Y-88528713D01*
X149662914Y-88528713D02*
X149710533Y-88623951D01*
X143649580Y-94172857D02*
X143697200Y-94220476D01*
X143697200Y-94220476D02*
X143744819Y-94363333D01*
X143744819Y-94363333D02*
X143744819Y-94458571D01*
X143744819Y-94458571D02*
X143697200Y-94601428D01*
X143697200Y-94601428D02*
X143601961Y-94696666D01*
X143601961Y-94696666D02*
X143506723Y-94744285D01*
X143506723Y-94744285D02*
X143316247Y-94791904D01*
X143316247Y-94791904D02*
X143173390Y-94791904D01*
X143173390Y-94791904D02*
X142982914Y-94744285D01*
X142982914Y-94744285D02*
X142887676Y-94696666D01*
X142887676Y-94696666D02*
X142792438Y-94601428D01*
X142792438Y-94601428D02*
X142744819Y-94458571D01*
X142744819Y-94458571D02*
X142744819Y-94363333D01*
X142744819Y-94363333D02*
X142792438Y-94220476D01*
X142792438Y-94220476D02*
X142840057Y-94172857D01*
X143744819Y-93220476D02*
X143744819Y-93791904D01*
X143744819Y-93506190D02*
X142744819Y-93506190D01*
X142744819Y-93506190D02*
X142887676Y-93601428D01*
X142887676Y-93601428D02*
X142982914Y-93696666D01*
X142982914Y-93696666D02*
X143030533Y-93791904D01*
X142840057Y-92839523D02*
X142792438Y-92791904D01*
X142792438Y-92791904D02*
X142744819Y-92696666D01*
X142744819Y-92696666D02*
X142744819Y-92458571D01*
X142744819Y-92458571D02*
X142792438Y-92363333D01*
X142792438Y-92363333D02*
X142840057Y-92315714D01*
X142840057Y-92315714D02*
X142935295Y-92268095D01*
X142935295Y-92268095D02*
X143030533Y-92268095D01*
X143030533Y-92268095D02*
X143173390Y-92315714D01*
X143173390Y-92315714D02*
X143744819Y-92887142D01*
X143744819Y-92887142D02*
X143744819Y-92268095D01*
X132347080Y-89361666D02*
X132394700Y-89409285D01*
X132394700Y-89409285D02*
X132442319Y-89552142D01*
X132442319Y-89552142D02*
X132442319Y-89647380D01*
X132442319Y-89647380D02*
X132394700Y-89790237D01*
X132394700Y-89790237D02*
X132299461Y-89885475D01*
X132299461Y-89885475D02*
X132204223Y-89933094D01*
X132204223Y-89933094D02*
X132013747Y-89980713D01*
X132013747Y-89980713D02*
X131870890Y-89980713D01*
X131870890Y-89980713D02*
X131680414Y-89933094D01*
X131680414Y-89933094D02*
X131585176Y-89885475D01*
X131585176Y-89885475D02*
X131489938Y-89790237D01*
X131489938Y-89790237D02*
X131442319Y-89647380D01*
X131442319Y-89647380D02*
X131442319Y-89552142D01*
X131442319Y-89552142D02*
X131489938Y-89409285D01*
X131489938Y-89409285D02*
X131537557Y-89361666D01*
X132442319Y-88885475D02*
X132442319Y-88694999D01*
X132442319Y-88694999D02*
X132394700Y-88599761D01*
X132394700Y-88599761D02*
X132347080Y-88552142D01*
X132347080Y-88552142D02*
X132204223Y-88456904D01*
X132204223Y-88456904D02*
X132013747Y-88409285D01*
X132013747Y-88409285D02*
X131632795Y-88409285D01*
X131632795Y-88409285D02*
X131537557Y-88456904D01*
X131537557Y-88456904D02*
X131489938Y-88504523D01*
X131489938Y-88504523D02*
X131442319Y-88599761D01*
X131442319Y-88599761D02*
X131442319Y-88790237D01*
X131442319Y-88790237D02*
X131489938Y-88885475D01*
X131489938Y-88885475D02*
X131537557Y-88933094D01*
X131537557Y-88933094D02*
X131632795Y-88980713D01*
X131632795Y-88980713D02*
X131870890Y-88980713D01*
X131870890Y-88980713D02*
X131966128Y-88933094D01*
X131966128Y-88933094D02*
X132013747Y-88885475D01*
X132013747Y-88885475D02*
X132061366Y-88790237D01*
X132061366Y-88790237D02*
X132061366Y-88599761D01*
X132061366Y-88599761D02*
X132013747Y-88504523D01*
X132013747Y-88504523D02*
X131966128Y-88456904D01*
X131966128Y-88456904D02*
X131870890Y-88409285D01*
X156947142Y-88699580D02*
X156899523Y-88747200D01*
X156899523Y-88747200D02*
X156756666Y-88794819D01*
X156756666Y-88794819D02*
X156661428Y-88794819D01*
X156661428Y-88794819D02*
X156518571Y-88747200D01*
X156518571Y-88747200D02*
X156423333Y-88651961D01*
X156423333Y-88651961D02*
X156375714Y-88556723D01*
X156375714Y-88556723D02*
X156328095Y-88366247D01*
X156328095Y-88366247D02*
X156328095Y-88223390D01*
X156328095Y-88223390D02*
X156375714Y-88032914D01*
X156375714Y-88032914D02*
X156423333Y-87937676D01*
X156423333Y-87937676D02*
X156518571Y-87842438D01*
X156518571Y-87842438D02*
X156661428Y-87794819D01*
X156661428Y-87794819D02*
X156756666Y-87794819D01*
X156756666Y-87794819D02*
X156899523Y-87842438D01*
X156899523Y-87842438D02*
X156947142Y-87890057D01*
X157328095Y-87890057D02*
X157375714Y-87842438D01*
X157375714Y-87842438D02*
X157470952Y-87794819D01*
X157470952Y-87794819D02*
X157709047Y-87794819D01*
X157709047Y-87794819D02*
X157804285Y-87842438D01*
X157804285Y-87842438D02*
X157851904Y-87890057D01*
X157851904Y-87890057D02*
X157899523Y-87985295D01*
X157899523Y-87985295D02*
X157899523Y-88080533D01*
X157899523Y-88080533D02*
X157851904Y-88223390D01*
X157851904Y-88223390D02*
X157280476Y-88794819D01*
X157280476Y-88794819D02*
X157899523Y-88794819D01*
X158470952Y-88223390D02*
X158375714Y-88175771D01*
X158375714Y-88175771D02*
X158328095Y-88128152D01*
X158328095Y-88128152D02*
X158280476Y-88032914D01*
X158280476Y-88032914D02*
X158280476Y-87985295D01*
X158280476Y-87985295D02*
X158328095Y-87890057D01*
X158328095Y-87890057D02*
X158375714Y-87842438D01*
X158375714Y-87842438D02*
X158470952Y-87794819D01*
X158470952Y-87794819D02*
X158661428Y-87794819D01*
X158661428Y-87794819D02*
X158756666Y-87842438D01*
X158756666Y-87842438D02*
X158804285Y-87890057D01*
X158804285Y-87890057D02*
X158851904Y-87985295D01*
X158851904Y-87985295D02*
X158851904Y-88032914D01*
X158851904Y-88032914D02*
X158804285Y-88128152D01*
X158804285Y-88128152D02*
X158756666Y-88175771D01*
X158756666Y-88175771D02*
X158661428Y-88223390D01*
X158661428Y-88223390D02*
X158470952Y-88223390D01*
X158470952Y-88223390D02*
X158375714Y-88271009D01*
X158375714Y-88271009D02*
X158328095Y-88318628D01*
X158328095Y-88318628D02*
X158280476Y-88413866D01*
X158280476Y-88413866D02*
X158280476Y-88604342D01*
X158280476Y-88604342D02*
X158328095Y-88699580D01*
X158328095Y-88699580D02*
X158375714Y-88747200D01*
X158375714Y-88747200D02*
X158470952Y-88794819D01*
X158470952Y-88794819D02*
X158661428Y-88794819D01*
X158661428Y-88794819D02*
X158756666Y-88747200D01*
X158756666Y-88747200D02*
X158804285Y-88699580D01*
X158804285Y-88699580D02*
X158851904Y-88604342D01*
X158851904Y-88604342D02*
X158851904Y-88413866D01*
X158851904Y-88413866D02*
X158804285Y-88318628D01*
X158804285Y-88318628D02*
X158756666Y-88271009D01*
X158756666Y-88271009D02*
X158661428Y-88223390D01*
X140908333Y-74079819D02*
X140432143Y-74079819D01*
X140432143Y-74079819D02*
X140432143Y-73079819D01*
X141670238Y-73079819D02*
X141479762Y-73079819D01*
X141479762Y-73079819D02*
X141384524Y-73127438D01*
X141384524Y-73127438D02*
X141336905Y-73175057D01*
X141336905Y-73175057D02*
X141241667Y-73317914D01*
X141241667Y-73317914D02*
X141194048Y-73508390D01*
X141194048Y-73508390D02*
X141194048Y-73889342D01*
X141194048Y-73889342D02*
X141241667Y-73984580D01*
X141241667Y-73984580D02*
X141289286Y-74032200D01*
X141289286Y-74032200D02*
X141384524Y-74079819D01*
X141384524Y-74079819D02*
X141575000Y-74079819D01*
X141575000Y-74079819D02*
X141670238Y-74032200D01*
X141670238Y-74032200D02*
X141717857Y-73984580D01*
X141717857Y-73984580D02*
X141765476Y-73889342D01*
X141765476Y-73889342D02*
X141765476Y-73651247D01*
X141765476Y-73651247D02*
X141717857Y-73556009D01*
X141717857Y-73556009D02*
X141670238Y-73508390D01*
X141670238Y-73508390D02*
X141575000Y-73460771D01*
X141575000Y-73460771D02*
X141384524Y-73460771D01*
X141384524Y-73460771D02*
X141289286Y-73508390D01*
X141289286Y-73508390D02*
X141241667Y-73556009D01*
X141241667Y-73556009D02*
X141194048Y-73651247D01*
X159119580Y-76422857D02*
X159167200Y-76470476D01*
X159167200Y-76470476D02*
X159214819Y-76613333D01*
X159214819Y-76613333D02*
X159214819Y-76708571D01*
X159214819Y-76708571D02*
X159167200Y-76851428D01*
X159167200Y-76851428D02*
X159071961Y-76946666D01*
X159071961Y-76946666D02*
X158976723Y-76994285D01*
X158976723Y-76994285D02*
X158786247Y-77041904D01*
X158786247Y-77041904D02*
X158643390Y-77041904D01*
X158643390Y-77041904D02*
X158452914Y-76994285D01*
X158452914Y-76994285D02*
X158357676Y-76946666D01*
X158357676Y-76946666D02*
X158262438Y-76851428D01*
X158262438Y-76851428D02*
X158214819Y-76708571D01*
X158214819Y-76708571D02*
X158214819Y-76613333D01*
X158214819Y-76613333D02*
X158262438Y-76470476D01*
X158262438Y-76470476D02*
X158310057Y-76422857D01*
X159214819Y-75470476D02*
X159214819Y-76041904D01*
X159214819Y-75756190D02*
X158214819Y-75756190D01*
X158214819Y-75756190D02*
X158357676Y-75851428D01*
X158357676Y-75851428D02*
X158452914Y-75946666D01*
X158452914Y-75946666D02*
X158500533Y-76041904D01*
X158214819Y-74613333D02*
X158214819Y-74803809D01*
X158214819Y-74803809D02*
X158262438Y-74899047D01*
X158262438Y-74899047D02*
X158310057Y-74946666D01*
X158310057Y-74946666D02*
X158452914Y-75041904D01*
X158452914Y-75041904D02*
X158643390Y-75089523D01*
X158643390Y-75089523D02*
X159024342Y-75089523D01*
X159024342Y-75089523D02*
X159119580Y-75041904D01*
X159119580Y-75041904D02*
X159167200Y-74994285D01*
X159167200Y-74994285D02*
X159214819Y-74899047D01*
X159214819Y-74899047D02*
X159214819Y-74708571D01*
X159214819Y-74708571D02*
X159167200Y-74613333D01*
X159167200Y-74613333D02*
X159119580Y-74565714D01*
X159119580Y-74565714D02*
X159024342Y-74518095D01*
X159024342Y-74518095D02*
X158786247Y-74518095D01*
X158786247Y-74518095D02*
X158691009Y-74565714D01*
X158691009Y-74565714D02*
X158643390Y-74613333D01*
X158643390Y-74613333D02*
X158595771Y-74708571D01*
X158595771Y-74708571D02*
X158595771Y-74899047D01*
X158595771Y-74899047D02*
X158643390Y-74994285D01*
X158643390Y-74994285D02*
X158691009Y-75041904D01*
X158691009Y-75041904D02*
X158786247Y-75089523D01*
X131409580Y-86822857D02*
X131457200Y-86870476D01*
X131457200Y-86870476D02*
X131504819Y-87013333D01*
X131504819Y-87013333D02*
X131504819Y-87108571D01*
X131504819Y-87108571D02*
X131457200Y-87251428D01*
X131457200Y-87251428D02*
X131361961Y-87346666D01*
X131361961Y-87346666D02*
X131266723Y-87394285D01*
X131266723Y-87394285D02*
X131076247Y-87441904D01*
X131076247Y-87441904D02*
X130933390Y-87441904D01*
X130933390Y-87441904D02*
X130742914Y-87394285D01*
X130742914Y-87394285D02*
X130647676Y-87346666D01*
X130647676Y-87346666D02*
X130552438Y-87251428D01*
X130552438Y-87251428D02*
X130504819Y-87108571D01*
X130504819Y-87108571D02*
X130504819Y-87013333D01*
X130504819Y-87013333D02*
X130552438Y-86870476D01*
X130552438Y-86870476D02*
X130600057Y-86822857D01*
X130600057Y-86441904D02*
X130552438Y-86394285D01*
X130552438Y-86394285D02*
X130504819Y-86299047D01*
X130504819Y-86299047D02*
X130504819Y-86060952D01*
X130504819Y-86060952D02*
X130552438Y-85965714D01*
X130552438Y-85965714D02*
X130600057Y-85918095D01*
X130600057Y-85918095D02*
X130695295Y-85870476D01*
X130695295Y-85870476D02*
X130790533Y-85870476D01*
X130790533Y-85870476D02*
X130933390Y-85918095D01*
X130933390Y-85918095D02*
X131504819Y-86489523D01*
X131504819Y-86489523D02*
X131504819Y-85870476D01*
X130504819Y-84965714D02*
X130504819Y-85441904D01*
X130504819Y-85441904D02*
X130981009Y-85489523D01*
X130981009Y-85489523D02*
X130933390Y-85441904D01*
X130933390Y-85441904D02*
X130885771Y-85346666D01*
X130885771Y-85346666D02*
X130885771Y-85108571D01*
X130885771Y-85108571D02*
X130933390Y-85013333D01*
X130933390Y-85013333D02*
X130981009Y-84965714D01*
X130981009Y-84965714D02*
X131076247Y-84918095D01*
X131076247Y-84918095D02*
X131314342Y-84918095D01*
X131314342Y-84918095D02*
X131409580Y-84965714D01*
X131409580Y-84965714D02*
X131457200Y-85013333D01*
X131457200Y-85013333D02*
X131504819Y-85108571D01*
X131504819Y-85108571D02*
X131504819Y-85346666D01*
X131504819Y-85346666D02*
X131457200Y-85441904D01*
X131457200Y-85441904D02*
X131409580Y-85489523D01*
X119081905Y-74394819D02*
X119081905Y-73394819D01*
X119081905Y-73394819D02*
X119320000Y-73394819D01*
X119320000Y-73394819D02*
X119462857Y-73442438D01*
X119462857Y-73442438D02*
X119558095Y-73537676D01*
X119558095Y-73537676D02*
X119605714Y-73632914D01*
X119605714Y-73632914D02*
X119653333Y-73823390D01*
X119653333Y-73823390D02*
X119653333Y-73966247D01*
X119653333Y-73966247D02*
X119605714Y-74156723D01*
X119605714Y-74156723D02*
X119558095Y-74251961D01*
X119558095Y-74251961D02*
X119462857Y-74347200D01*
X119462857Y-74347200D02*
X119320000Y-74394819D01*
X119320000Y-74394819D02*
X119081905Y-74394819D01*
X120605714Y-74394819D02*
X120034286Y-74394819D01*
X120320000Y-74394819D02*
X120320000Y-73394819D01*
X120320000Y-73394819D02*
X120224762Y-73537676D01*
X120224762Y-73537676D02*
X120129524Y-73632914D01*
X120129524Y-73632914D02*
X120034286Y-73680533D01*
X154903333Y-85544819D02*
X154570000Y-85068628D01*
X154331905Y-85544819D02*
X154331905Y-84544819D01*
X154331905Y-84544819D02*
X154712857Y-84544819D01*
X154712857Y-84544819D02*
X154808095Y-84592438D01*
X154808095Y-84592438D02*
X154855714Y-84640057D01*
X154855714Y-84640057D02*
X154903333Y-84735295D01*
X154903333Y-84735295D02*
X154903333Y-84878152D01*
X154903333Y-84878152D02*
X154855714Y-84973390D01*
X154855714Y-84973390D02*
X154808095Y-85021009D01*
X154808095Y-85021009D02*
X154712857Y-85068628D01*
X154712857Y-85068628D02*
X154331905Y-85068628D01*
X155379524Y-85544819D02*
X155570000Y-85544819D01*
X155570000Y-85544819D02*
X155665238Y-85497200D01*
X155665238Y-85497200D02*
X155712857Y-85449580D01*
X155712857Y-85449580D02*
X155808095Y-85306723D01*
X155808095Y-85306723D02*
X155855714Y-85116247D01*
X155855714Y-85116247D02*
X155855714Y-84735295D01*
X155855714Y-84735295D02*
X155808095Y-84640057D01*
X155808095Y-84640057D02*
X155760476Y-84592438D01*
X155760476Y-84592438D02*
X155665238Y-84544819D01*
X155665238Y-84544819D02*
X155474762Y-84544819D01*
X155474762Y-84544819D02*
X155379524Y-84592438D01*
X155379524Y-84592438D02*
X155331905Y-84640057D01*
X155331905Y-84640057D02*
X155284286Y-84735295D01*
X155284286Y-84735295D02*
X155284286Y-84973390D01*
X155284286Y-84973390D02*
X155331905Y-85068628D01*
X155331905Y-85068628D02*
X155379524Y-85116247D01*
X155379524Y-85116247D02*
X155474762Y-85163866D01*
X155474762Y-85163866D02*
X155665238Y-85163866D01*
X155665238Y-85163866D02*
X155760476Y-85116247D01*
X155760476Y-85116247D02*
X155808095Y-85068628D01*
X155808095Y-85068628D02*
X155855714Y-84973390D01*
X133157142Y-77359580D02*
X133109523Y-77407200D01*
X133109523Y-77407200D02*
X132966666Y-77454819D01*
X132966666Y-77454819D02*
X132871428Y-77454819D01*
X132871428Y-77454819D02*
X132728571Y-77407200D01*
X132728571Y-77407200D02*
X132633333Y-77311961D01*
X132633333Y-77311961D02*
X132585714Y-77216723D01*
X132585714Y-77216723D02*
X132538095Y-77026247D01*
X132538095Y-77026247D02*
X132538095Y-76883390D01*
X132538095Y-76883390D02*
X132585714Y-76692914D01*
X132585714Y-76692914D02*
X132633333Y-76597676D01*
X132633333Y-76597676D02*
X132728571Y-76502438D01*
X132728571Y-76502438D02*
X132871428Y-76454819D01*
X132871428Y-76454819D02*
X132966666Y-76454819D01*
X132966666Y-76454819D02*
X133109523Y-76502438D01*
X133109523Y-76502438D02*
X133157142Y-76550057D01*
X133538095Y-76550057D02*
X133585714Y-76502438D01*
X133585714Y-76502438D02*
X133680952Y-76454819D01*
X133680952Y-76454819D02*
X133919047Y-76454819D01*
X133919047Y-76454819D02*
X134014285Y-76502438D01*
X134014285Y-76502438D02*
X134061904Y-76550057D01*
X134061904Y-76550057D02*
X134109523Y-76645295D01*
X134109523Y-76645295D02*
X134109523Y-76740533D01*
X134109523Y-76740533D02*
X134061904Y-76883390D01*
X134061904Y-76883390D02*
X133490476Y-77454819D01*
X133490476Y-77454819D02*
X134109523Y-77454819D01*
X134442857Y-76454819D02*
X135061904Y-76454819D01*
X135061904Y-76454819D02*
X134728571Y-76835771D01*
X134728571Y-76835771D02*
X134871428Y-76835771D01*
X134871428Y-76835771D02*
X134966666Y-76883390D01*
X134966666Y-76883390D02*
X135014285Y-76931009D01*
X135014285Y-76931009D02*
X135061904Y-77026247D01*
X135061904Y-77026247D02*
X135061904Y-77264342D01*
X135061904Y-77264342D02*
X135014285Y-77359580D01*
X135014285Y-77359580D02*
X134966666Y-77407200D01*
X134966666Y-77407200D02*
X134871428Y-77454819D01*
X134871428Y-77454819D02*
X134585714Y-77454819D01*
X134585714Y-77454819D02*
X134490476Y-77407200D01*
X134490476Y-77407200D02*
X134442857Y-77359580D01*
X153523809Y-70028628D02*
X153523809Y-70504819D01*
X153190476Y-69504819D02*
X153523809Y-70028628D01*
X153523809Y-70028628D02*
X153857142Y-69504819D01*
X154714285Y-70504819D02*
X154142857Y-70504819D01*
X154428571Y-70504819D02*
X154428571Y-69504819D01*
X154428571Y-69504819D02*
X154333333Y-69647676D01*
X154333333Y-69647676D02*
X154238095Y-69742914D01*
X154238095Y-69742914D02*
X154142857Y-69790533D01*
X154923333Y-84044819D02*
X154590000Y-83568628D01*
X154351905Y-84044819D02*
X154351905Y-83044819D01*
X154351905Y-83044819D02*
X154732857Y-83044819D01*
X154732857Y-83044819D02*
X154828095Y-83092438D01*
X154828095Y-83092438D02*
X154875714Y-83140057D01*
X154875714Y-83140057D02*
X154923333Y-83235295D01*
X154923333Y-83235295D02*
X154923333Y-83378152D01*
X154923333Y-83378152D02*
X154875714Y-83473390D01*
X154875714Y-83473390D02*
X154828095Y-83521009D01*
X154828095Y-83521009D02*
X154732857Y-83568628D01*
X154732857Y-83568628D02*
X154351905Y-83568628D01*
X155494762Y-83473390D02*
X155399524Y-83425771D01*
X155399524Y-83425771D02*
X155351905Y-83378152D01*
X155351905Y-83378152D02*
X155304286Y-83282914D01*
X155304286Y-83282914D02*
X155304286Y-83235295D01*
X155304286Y-83235295D02*
X155351905Y-83140057D01*
X155351905Y-83140057D02*
X155399524Y-83092438D01*
X155399524Y-83092438D02*
X155494762Y-83044819D01*
X155494762Y-83044819D02*
X155685238Y-83044819D01*
X155685238Y-83044819D02*
X155780476Y-83092438D01*
X155780476Y-83092438D02*
X155828095Y-83140057D01*
X155828095Y-83140057D02*
X155875714Y-83235295D01*
X155875714Y-83235295D02*
X155875714Y-83282914D01*
X155875714Y-83282914D02*
X155828095Y-83378152D01*
X155828095Y-83378152D02*
X155780476Y-83425771D01*
X155780476Y-83425771D02*
X155685238Y-83473390D01*
X155685238Y-83473390D02*
X155494762Y-83473390D01*
X155494762Y-83473390D02*
X155399524Y-83521009D01*
X155399524Y-83521009D02*
X155351905Y-83568628D01*
X155351905Y-83568628D02*
X155304286Y-83663866D01*
X155304286Y-83663866D02*
X155304286Y-83854342D01*
X155304286Y-83854342D02*
X155351905Y-83949580D01*
X155351905Y-83949580D02*
X155399524Y-83997200D01*
X155399524Y-83997200D02*
X155494762Y-84044819D01*
X155494762Y-84044819D02*
X155685238Y-84044819D01*
X155685238Y-84044819D02*
X155780476Y-83997200D01*
X155780476Y-83997200D02*
X155828095Y-83949580D01*
X155828095Y-83949580D02*
X155875714Y-83854342D01*
X155875714Y-83854342D02*
X155875714Y-83663866D01*
X155875714Y-83663866D02*
X155828095Y-83568628D01*
X155828095Y-83568628D02*
X155780476Y-83521009D01*
X155780476Y-83521009D02*
X155685238Y-83473390D01*
D12*
%TO.C,C19*%
X141480000Y-76918433D02*
X141480000Y-77210967D01*
X140460000Y-76918433D02*
X140460000Y-77210967D01*
%TO.C,U3*%
X136498800Y-79397600D02*
X134998800Y-79397600D01*
X135748800Y-81117600D02*
X134998800Y-81117600D01*
%TO.C,L5*%
X145661533Y-70378800D02*
X146004067Y-70378800D01*
X145661533Y-71398800D02*
X146004067Y-71398800D01*
%TO.C,R7*%
X137262776Y-73137500D02*
X137772224Y-73137500D01*
X137262776Y-74182500D02*
X137772224Y-74182500D01*
%TO.C,R2*%
X139522924Y-81954900D02*
X139013476Y-81954900D01*
X139522924Y-80909900D02*
X139013476Y-80909900D01*
%TO.C,J2*%
X127400000Y-67900000D02*
X127400000Y-66570000D01*
X128730000Y-67900000D02*
X127400000Y-67900000D01*
X130000000Y-67900000D02*
X140220000Y-67900000D01*
X130000000Y-67900000D02*
X130000000Y-65240000D01*
X140220000Y-67900000D02*
X140220000Y-65240000D01*
X130000000Y-65240000D02*
X140220000Y-65240000D01*
%TO.C,C4*%
X144876567Y-91781600D02*
X144584033Y-91781600D01*
X144876567Y-90761600D02*
X144584033Y-90761600D01*
%TO.C,C14*%
X145710833Y-68778600D02*
X146003367Y-68778600D01*
X145710833Y-69798600D02*
X146003367Y-69798600D01*
%TO.C,C10*%
X129006800Y-90402967D02*
X129006800Y-90110433D01*
X130026800Y-90402967D02*
X130026800Y-90110433D01*
%TO.C,L4*%
X148440000Y-91922700D02*
X148440000Y-91722300D01*
X149160000Y-91922700D02*
X149160000Y-91722300D01*
%TO.C,C24*%
X133199600Y-82783633D02*
X133199600Y-83076167D01*
X132179600Y-82783633D02*
X132179600Y-83076167D01*
%TO.C,U1*%
X145296000Y-83552000D02*
X145296000Y-83077000D01*
X145771000Y-76332000D02*
X145296000Y-76332000D01*
X145771000Y-83552000D02*
X145296000Y-83552000D01*
X152041000Y-76332000D02*
X152516000Y-76332000D01*
X152041000Y-83552000D02*
X152516000Y-83552000D01*
X152516000Y-76332000D02*
X152516000Y-76807000D01*
X152516000Y-83552000D02*
X152516000Y-83077000D01*
%TO.C,C1*%
X152728733Y-67715000D02*
X153021267Y-67715000D01*
X152728733Y-68735000D02*
X153021267Y-68735000D01*
%TO.C,R1*%
X126618576Y-90601200D02*
X127128024Y-90601200D01*
X126618576Y-91646200D02*
X127128024Y-91646200D01*
%TO.C,C21*%
X143691233Y-72065000D02*
X143983767Y-72065000D01*
X143691233Y-73085000D02*
X143983767Y-73085000D01*
%TO.C,C18*%
X150018533Y-73461200D02*
X150311067Y-73461200D01*
X150018533Y-74481200D02*
X150311067Y-74481200D01*
%TO.C,C3*%
X144608333Y-87078600D02*
X144900867Y-87078600D01*
X144608333Y-88098600D02*
X144900867Y-88098600D01*
%TO.C,C20*%
X143054800Y-76918433D02*
X143054800Y-77210967D01*
X142034800Y-76918433D02*
X142034800Y-77210967D01*
%TO.C,C2*%
X149483767Y-68735000D02*
X149191233Y-68735000D01*
X149483767Y-67715000D02*
X149191233Y-67715000D01*
%TO.C,L7*%
X123660000Y-71672500D02*
X125660000Y-71672500D01*
X123660000Y-73672500D02*
X123660000Y-71672500D01*
X124040000Y-72052500D02*
X124040000Y-73822500D01*
X124040000Y-72052500D02*
X130280000Y-72052500D01*
X124040000Y-76522500D02*
X124040000Y-78292500D01*
X124040000Y-78292500D02*
X130280000Y-78292500D01*
X130280000Y-72052500D02*
X130280000Y-73822500D01*
X130280000Y-76522500D02*
X130280000Y-78292500D01*
%TO.C,C7*%
X142472800Y-90110433D02*
X142472800Y-90402967D01*
X141452800Y-90110433D02*
X141452800Y-90402967D01*
%TO.C,C15*%
X154988800Y-75786367D02*
X154988800Y-75493833D01*
X156008800Y-75786367D02*
X156008800Y-75493833D01*
%TO.C,C6*%
X139310000Y-93695433D02*
X139310000Y-93987967D01*
X138290000Y-93695433D02*
X138290000Y-93987967D01*
%TO.C,C22*%
X147948867Y-86422200D02*
X147656333Y-86422200D01*
X147948867Y-85402200D02*
X147656333Y-85402200D01*
%TO.C,L2*%
X140015000Y-90050200D02*
X140015000Y-89849800D01*
X140735000Y-90050200D02*
X140735000Y-89849800D01*
%TO.C,C13*%
X145713033Y-67229200D02*
X146005567Y-67229200D01*
X145713033Y-68249200D02*
X146005567Y-68249200D01*
%TO.C,C5*%
X144876567Y-89902000D02*
X144584033Y-89902000D01*
X144876567Y-88882000D02*
X144584033Y-88882000D01*
%TO.C,C26*%
X124510000Y-81816233D02*
X124510000Y-82108767D01*
X123490000Y-81816233D02*
X123490000Y-82108767D01*
%TO.C,R6*%
X117177500Y-71742224D02*
X117177500Y-71232776D01*
X118222500Y-71742224D02*
X118222500Y-71232776D01*
%TO.C,R4*%
X130492224Y-80842500D02*
X129982776Y-80842500D01*
X130492224Y-79797500D02*
X129982776Y-79797500D01*
%TO.C,J1*%
X119670000Y-89055000D02*
X119670000Y-90165000D01*
X115960000Y-89055000D02*
X115960000Y-90165000D01*
X120720000Y-90755000D02*
X120220000Y-91005000D01*
X120220000Y-91005000D02*
X120720000Y-91255000D01*
X120720000Y-91255000D02*
X120720000Y-90755000D01*
X119670000Y-91845000D02*
X119670000Y-92955000D01*
X115960000Y-91845000D02*
X115960000Y-92955000D01*
%TO.C,L8*%
X157633800Y-79827800D02*
X157834200Y-79827800D01*
X157633800Y-80547800D02*
X157834200Y-80547800D01*
%TO.C,C8*%
X139310000Y-90116233D02*
X139310000Y-90408767D01*
X138290000Y-90116233D02*
X138290000Y-90408767D01*
%TO.C,C11*%
X147703000Y-93689633D02*
X147703000Y-93982167D01*
X146683000Y-93689633D02*
X146683000Y-93982167D01*
%TO.C,U5*%
X120942500Y-66020000D02*
X119142500Y-66020000D01*
X120942500Y-66020000D02*
X121742500Y-66020000D01*
X120942500Y-69140000D02*
X120142500Y-69140000D01*
X120942500Y-69140000D02*
X121742500Y-69140000D01*
%TO.C,J3*%
X122270000Y-85500000D02*
X122910000Y-85500000D01*
X122910000Y-85500000D02*
X122910000Y-85100000D01*
X115930000Y-85260000D02*
X122670000Y-85260000D01*
X115930000Y-85260000D02*
X115930000Y-79480000D01*
X117050000Y-85260000D02*
X117050000Y-79480000D01*
X122150000Y-85260000D02*
X122150000Y-79480000D01*
X122670000Y-85260000D02*
X122670000Y-79480000D01*
X115930000Y-79480000D02*
X122670000Y-79480000D01*
D11*
%TO.C,U6*%
X125160000Y-79985000D02*
X127085000Y-79985000D01*
X125935000Y-83235000D02*
X127085000Y-83235000D01*
D12*
%TO.C,L3*%
X135463748Y-90365000D02*
X135986252Y-90365000D01*
X135463748Y-91785000D02*
X135986252Y-91785000D01*
%TO.C,R3*%
X136840700Y-77498024D02*
X136840700Y-76988576D01*
X137885700Y-77498024D02*
X137885700Y-76988576D01*
D13*
%TO.C,U2*%
X136108800Y-81667000D02*
X136748800Y-81667000D01*
X134548800Y-81667000D02*
X135188800Y-81667000D01*
X134548800Y-81667000D02*
X134548800Y-82147000D01*
X136748800Y-83887000D02*
X136748800Y-84367000D01*
X134548800Y-83887000D02*
X134548800Y-84367000D01*
X136108800Y-84367000D02*
X136748800Y-84367000D01*
X134548800Y-84367000D02*
X135188800Y-84367000D01*
D12*
%TO.C,R5*%
X117177500Y-67892224D02*
X117177500Y-67382776D01*
X118222500Y-67892224D02*
X118222500Y-67382776D01*
%TO.C,C17*%
X150018533Y-71911800D02*
X150311067Y-71911800D01*
X150018533Y-72931800D02*
X150311067Y-72931800D01*
%TO.C,C27*%
X157587733Y-81303400D02*
X157880267Y-81303400D01*
X157587733Y-82323400D02*
X157880267Y-82323400D01*
%TO.C,Y2*%
X162448000Y-81887800D02*
X162448000Y-79587800D01*
X162448000Y-79587800D02*
X159748000Y-79587800D01*
%TO.C,L1*%
X149160000Y-88642800D02*
X149160000Y-88843200D01*
X148440000Y-88642800D02*
X148440000Y-88843200D01*
%TO.C,C12*%
X145950400Y-93689633D02*
X145950400Y-93982167D01*
X144930400Y-93689633D02*
X144930400Y-93982167D01*
%TO.C,C9*%
X132133767Y-91610000D02*
X131841233Y-91610000D01*
X132133767Y-90590000D02*
X131841233Y-90590000D01*
%TO.C,C28*%
X157587733Y-86180200D02*
X157880267Y-86180200D01*
X157587733Y-87200200D02*
X157880267Y-87200200D01*
%TO.C,L6*%
X144138252Y-75055800D02*
X143615748Y-75055800D01*
X144138252Y-73635800D02*
X143615748Y-73635800D01*
%TO.C,C16*%
X156639800Y-75786367D02*
X156639800Y-75493833D01*
X157659800Y-75786367D02*
X157659800Y-75493833D01*
%TO.C,C25*%
X131377500Y-82766233D02*
X131377500Y-83058767D01*
X130357500Y-82766233D02*
X130357500Y-83058767D01*
%TO.C,D1*%
X120897500Y-69890000D02*
X119222500Y-69890000D01*
X120897500Y-69890000D02*
X121547500Y-69890000D01*
X120897500Y-73010000D02*
X120247500Y-73010000D01*
X120897500Y-73010000D02*
X121547500Y-73010000D01*
%TO.C,R9*%
X157988724Y-85587100D02*
X157479276Y-85587100D01*
X157988724Y-84542100D02*
X157479276Y-84542100D01*
%TO.C,C23*%
X133199600Y-79280633D02*
X133199600Y-79573167D01*
X132179600Y-79280633D02*
X132179600Y-79573167D01*
%TO.C,Y1*%
X149450000Y-69275000D02*
X149450000Y-70875000D01*
X149450000Y-70875000D02*
X152300000Y-70875000D01*
X152300000Y-69275000D02*
X149450000Y-69275000D01*
%TO.C,R8*%
X157988724Y-83961500D02*
X157479276Y-83961500D01*
X157988724Y-82916500D02*
X157479276Y-82916500D01*
%TD*%
M02*
