%TF.GenerationSoftware,KiCad,Pcbnew,7.0.8*%
%TF.CreationDate,2023-12-27T18:35:19+01:00*%
%TF.ProjectId,pierwszy,70696572-7773-47a7-992e-6b696361645f,rev?*%
%TF.SameCoordinates,Original*%
%TF.FileFunction,Soldermask,Top*%
%TF.FilePolarity,Negative*%
%FSLAX46Y46*%
G04 Gerber Fmt 4.6, Leading zero omitted, Abs format (unit mm)*
G04 Created by KiCad (PCBNEW 7.0.8) date 2023-12-27 18:35:19*
%MOMM*%
%LPD*%
G01*
G04 APERTURE LIST*
G04 Aperture macros list*
%AMRoundRect*
0 Rectangle with rounded corners*
0 $1 Rounding radius*
0 $2 $3 $4 $5 $6 $7 $8 $9 X,Y pos of 4 corners*
0 Add a 4 corners polygon primitive as box body*
4,1,4,$2,$3,$4,$5,$6,$7,$8,$9,$2,$3,0*
0 Add four circle primitives for the rounded corners*
1,1,$1+$1,$2,$3*
1,1,$1+$1,$4,$5*
1,1,$1+$1,$6,$7*
1,1,$1+$1,$8,$9*
0 Add four rect primitives between the rounded corners*
20,1,$1+$1,$2,$3,$4,$5,0*
20,1,$1+$1,$4,$5,$6,$7,0*
20,1,$1+$1,$6,$7,$8,$9,0*
20,1,$1+$1,$8,$9,$2,$3,0*%
G04 Aperture macros list end*
%ADD10RoundRect,0.237500X-0.237500X0.300000X-0.237500X-0.300000X0.237500X-0.300000X0.237500X0.300000X0*%
%ADD11R,0.500000X0.300000*%
%ADD12RoundRect,0.237500X-0.287500X-0.237500X0.287500X-0.237500X0.287500X0.237500X-0.287500X0.237500X0*%
%ADD13RoundRect,0.237500X-0.250000X-0.237500X0.250000X-0.237500X0.250000X0.237500X-0.250000X0.237500X0*%
%ADD14RoundRect,0.237500X0.250000X0.237500X-0.250000X0.237500X-0.250000X-0.237500X0.250000X-0.237500X0*%
%ADD15R,1.700000X1.700000*%
%ADD16O,1.700000X1.700000*%
%ADD17RoundRect,0.237500X0.300000X0.237500X-0.300000X0.237500X-0.300000X-0.237500X0.300000X-0.237500X0*%
%ADD18RoundRect,0.237500X-0.300000X-0.237500X0.300000X-0.237500X0.300000X0.237500X-0.300000X0.237500X0*%
%ADD19RoundRect,0.237500X0.237500X-0.300000X0.237500X0.300000X-0.237500X0.300000X-0.237500X-0.300000X0*%
%ADD20RoundRect,0.160000X0.160000X-0.222500X0.160000X0.222500X-0.160000X0.222500X-0.160000X-0.222500X0*%
%ADD21RoundRect,0.062500X-0.375000X-0.062500X0.375000X-0.062500X0.375000X0.062500X-0.375000X0.062500X0*%
%ADD22RoundRect,0.062500X-0.062500X-0.375000X0.062500X-0.375000X0.062500X0.375000X-0.062500X0.375000X0*%
%ADD23R,5.600000X5.600000*%
%ADD24RoundRect,0.375000X-0.375000X-0.725000X0.375000X-0.725000X0.375000X0.725000X-0.375000X0.725000X0*%
%ADD25RoundRect,0.237500X0.237500X-0.250000X0.237500X0.250000X-0.237500X0.250000X-0.237500X-0.250000X0*%
%ADD26R,3.600000X1.270000*%
%ADD27R,4.200000X1.350000*%
%ADD28RoundRect,0.160000X-0.222500X-0.160000X0.222500X-0.160000X0.222500X0.160000X-0.222500X0.160000X0*%
%ADD29RoundRect,0.150000X-0.512500X-0.150000X0.512500X-0.150000X0.512500X0.150000X-0.512500X0.150000X0*%
%ADD30R,2.100000X2.100000*%
%ADD31C,2.100000*%
%ADD32R,0.500000X0.250000*%
%ADD33C,0.500000*%
%ADD34R,0.840000X2.400000*%
%ADD35RoundRect,0.250000X-0.325000X-0.450000X0.325000X-0.450000X0.325000X0.450000X-0.325000X0.450000X0*%
%ADD36R,0.500000X0.350000*%
%ADD37R,0.900000X0.800000*%
%ADD38RoundRect,0.160000X-0.160000X0.222500X-0.160000X-0.222500X0.160000X-0.222500X0.160000X0.222500X0*%
%ADD39RoundRect,0.250000X0.325000X0.450000X-0.325000X0.450000X-0.325000X-0.450000X0.325000X-0.450000X0*%
%ADD40RoundRect,0.150000X-0.587500X-0.150000X0.587500X-0.150000X0.587500X0.150000X-0.587500X0.150000X0*%
%ADD41R,1.050000X1.100000*%
G04 APERTURE END LIST*
D10*
%TO.C,C19*%
X140970000Y-76202200D03*
X140970000Y-77927200D03*
%TD*%
D11*
%TO.C,U3*%
X136448800Y-80657600D03*
X136448800Y-79857600D03*
X135048800Y-79857600D03*
X135048800Y-80657600D03*
%TD*%
D12*
%TO.C,L5*%
X144957800Y-70888800D03*
X146707800Y-70888800D03*
%TD*%
D13*
%TO.C,R7*%
X136605000Y-73660000D03*
X138430000Y-73660000D03*
%TD*%
D14*
%TO.C,R2*%
X140180700Y-81432400D03*
X138355700Y-81432400D03*
%TD*%
D15*
%TO.C,J2*%
X128730000Y-66570000D03*
D16*
X131270000Y-66570000D03*
X133810000Y-66570000D03*
X136350000Y-66570000D03*
X138890000Y-66570000D03*
%TD*%
D17*
%TO.C,C4*%
X145592800Y-91271600D03*
X143867800Y-91271600D03*
%TD*%
D18*
%TO.C,C14*%
X144994600Y-69288600D03*
X146719600Y-69288600D03*
%TD*%
D19*
%TO.C,C10*%
X129516800Y-91119200D03*
X129516800Y-89394200D03*
%TD*%
D20*
%TO.C,L4*%
X148800000Y-92395000D03*
X148800000Y-91250000D03*
%TD*%
D10*
%TO.C,C24*%
X132689600Y-82067400D03*
X132689600Y-83792400D03*
%TD*%
D21*
%TO.C,U1*%
X145468500Y-77192000D03*
X145468500Y-77692000D03*
X145468500Y-78192000D03*
X145468500Y-78692000D03*
X145468500Y-79192000D03*
X145468500Y-79692000D03*
X145468500Y-80192000D03*
X145468500Y-80692000D03*
X145468500Y-81192000D03*
X145468500Y-81692000D03*
X145468500Y-82192000D03*
X145468500Y-82692000D03*
D22*
X146156000Y-83379500D03*
X146656000Y-83379500D03*
X147156000Y-83379500D03*
X147656000Y-83379500D03*
X148156000Y-83379500D03*
X148656000Y-83379500D03*
X149156000Y-83379500D03*
X149656000Y-83379500D03*
X150156000Y-83379500D03*
X150656000Y-83379500D03*
X151156000Y-83379500D03*
X151656000Y-83379500D03*
D21*
X152343500Y-82692000D03*
X152343500Y-82192000D03*
X152343500Y-81692000D03*
X152343500Y-81192000D03*
X152343500Y-80692000D03*
X152343500Y-80192000D03*
X152343500Y-79692000D03*
X152343500Y-79192000D03*
X152343500Y-78692000D03*
X152343500Y-78192000D03*
X152343500Y-77692000D03*
X152343500Y-77192000D03*
D22*
X151656000Y-76504500D03*
X151156000Y-76504500D03*
X150656000Y-76504500D03*
X150156000Y-76504500D03*
X149656000Y-76504500D03*
X149156000Y-76504500D03*
X148656000Y-76504500D03*
X148156000Y-76504500D03*
X147656000Y-76504500D03*
X147156000Y-76504500D03*
X146656000Y-76504500D03*
X146156000Y-76504500D03*
D23*
X148906000Y-79942000D03*
%TD*%
D18*
%TO.C,C1*%
X152012500Y-68225000D03*
X153737500Y-68225000D03*
%TD*%
D13*
%TO.C,R1*%
X125960800Y-91123700D03*
X127785800Y-91123700D03*
%TD*%
D18*
%TO.C,C21*%
X142975000Y-72575000D03*
X144700000Y-72575000D03*
%TD*%
%TO.C,C18*%
X149302300Y-73971200D03*
X151027300Y-73971200D03*
%TD*%
%TO.C,C3*%
X143892100Y-87588600D03*
X145617100Y-87588600D03*
%TD*%
D10*
%TO.C,C20*%
X142544800Y-76202200D03*
X142544800Y-77927200D03*
%TD*%
D17*
%TO.C,C2*%
X150200000Y-68225000D03*
X148475000Y-68225000D03*
%TD*%
D24*
%TO.C,L7*%
X124410000Y-75172500D03*
X129910000Y-75172500D03*
%TD*%
D10*
%TO.C,C7*%
X141962800Y-89394200D03*
X141962800Y-91119200D03*
%TD*%
D19*
%TO.C,C15*%
X155498800Y-76502600D03*
X155498800Y-74777600D03*
%TD*%
D10*
%TO.C,C6*%
X138800000Y-92979200D03*
X138800000Y-94704200D03*
%TD*%
D17*
%TO.C,C22*%
X148665100Y-85912200D03*
X146940100Y-85912200D03*
%TD*%
D20*
%TO.C,L2*%
X140375000Y-90522500D03*
X140375000Y-89377500D03*
%TD*%
D18*
%TO.C,C13*%
X144996800Y-67739200D03*
X146721800Y-67739200D03*
%TD*%
D17*
%TO.C,C5*%
X145592800Y-89392000D03*
X143867800Y-89392000D03*
%TD*%
D10*
%TO.C,C26*%
X124000000Y-81100000D03*
X124000000Y-82825000D03*
%TD*%
D25*
%TO.C,R6*%
X117700000Y-72400000D03*
X117700000Y-70575000D03*
%TD*%
D14*
%TO.C,R4*%
X131150000Y-80320000D03*
X129325000Y-80320000D03*
%TD*%
D26*
%TO.C,J1*%
X117760000Y-91005000D03*
D27*
X117960000Y-88180000D03*
X117960000Y-93830000D03*
%TD*%
D28*
%TO.C,L8*%
X157161500Y-80187800D03*
X158306500Y-80187800D03*
%TD*%
D10*
%TO.C,C8*%
X138800000Y-89400000D03*
X138800000Y-91125000D03*
%TD*%
%TO.C,C11*%
X147193000Y-92973400D03*
X147193000Y-94698400D03*
%TD*%
D29*
%TO.C,U5*%
X119805000Y-66630000D03*
X119805000Y-67580000D03*
X119805000Y-68530000D03*
X122080000Y-68530000D03*
X122080000Y-66630000D03*
%TD*%
D30*
%TO.C,J3*%
X119300000Y-83640000D03*
D31*
X119300000Y-81100000D03*
%TD*%
D32*
%TO.C,U6*%
X125560000Y-80610000D03*
X125560000Y-81110000D03*
X125560000Y-81610000D03*
X125560000Y-82110000D03*
X125560000Y-82610000D03*
X127460000Y-82610000D03*
X127460000Y-82110000D03*
X127460000Y-81610000D03*
X127460000Y-81110000D03*
X127460000Y-80610000D03*
D33*
X126510000Y-80660000D03*
X126510000Y-81610000D03*
D34*
X126510000Y-81610000D03*
D33*
X126510000Y-82560000D03*
%TD*%
D35*
%TO.C,L3*%
X134700000Y-91075000D03*
X136750000Y-91075000D03*
%TD*%
D25*
%TO.C,R3*%
X137363200Y-78155800D03*
X137363200Y-76330800D03*
%TD*%
D36*
%TO.C,U2*%
X136448800Y-82042000D03*
X136448800Y-82692000D03*
X136448800Y-83342000D03*
X136448800Y-83992000D03*
X134848800Y-83992000D03*
X134848800Y-83342000D03*
X134848800Y-82692000D03*
X134848800Y-82042000D03*
%TD*%
D25*
%TO.C,R5*%
X117700000Y-68550000D03*
X117700000Y-66725000D03*
%TD*%
D18*
%TO.C,C17*%
X149302300Y-72421800D03*
X151027300Y-72421800D03*
%TD*%
%TO.C,C27*%
X156871500Y-81813400D03*
X158596500Y-81813400D03*
%TD*%
D37*
%TO.C,Y2*%
X161798000Y-80187800D03*
X160398000Y-80187800D03*
X160398000Y-81287800D03*
X161798000Y-81287800D03*
%TD*%
D38*
%TO.C,L1*%
X148800000Y-88170500D03*
X148800000Y-89315500D03*
%TD*%
D10*
%TO.C,C12*%
X145440400Y-92973400D03*
X145440400Y-94698400D03*
%TD*%
D17*
%TO.C,C9*%
X132850000Y-91100000D03*
X131125000Y-91100000D03*
%TD*%
D18*
%TO.C,C28*%
X156871500Y-86690200D03*
X158596500Y-86690200D03*
%TD*%
D39*
%TO.C,L6*%
X144902000Y-74345800D03*
X142852000Y-74345800D03*
%TD*%
D19*
%TO.C,C16*%
X157149800Y-76502600D03*
X157149800Y-74777600D03*
%TD*%
D10*
%TO.C,C25*%
X130867500Y-82050000D03*
X130867500Y-83775000D03*
%TD*%
D40*
%TO.C,D1*%
X119960000Y-70500000D03*
X119960000Y-72400000D03*
X121835000Y-71450000D03*
%TD*%
D14*
%TO.C,R9*%
X158646500Y-85064600D03*
X156821500Y-85064600D03*
%TD*%
D10*
%TO.C,C23*%
X132689600Y-78564400D03*
X132689600Y-80289400D03*
%TD*%
D41*
%TO.C,Y1*%
X150175000Y-70075000D03*
X152025000Y-70075000D03*
%TD*%
D14*
%TO.C,R8*%
X158646500Y-83439000D03*
X156821500Y-83439000D03*
%TD*%
M02*
